<?xml version="1.0" encoding="UTF-8"?>
<svg id="Layer_2" data-name="Layer 2" xmlns="http://www.w3.org/2000/svg" viewBox="0 0 84 46">
  <g id="Fire_Event" data-name="Fire Event">
    <rect width="84" height="46" fill="none"/>
    <path d="m31.9133,4.00053h-.01131c-.47726-.01912-.72183.31657-1.12408.31217-.52476-.04575-1.10413.08393-1.61497.23101-.41804.05763-.64232-.11918-.99623-.11365-.56667-.00743-1.11514.35641-1.64095.44611-.99972-.42151-2.4456.19079-3.47905.27699-.8832-.13427-1.64135-.52519-2.80798-.69101-1.08578-.10423-2.55719.22554-3.70263.56847-.7428-.21612-1.56104.18057-2.25086.36493-.73865.07382-1.68068.18429-2.2715.51709-.23029.28897-.55958.99308-.56029,1.60364-.1245.83003-.52171,1.88194-.53396,2.67111-.47703.44526-.828,1.5791-.82907,2.12326-.07947.41112-.30786,2.06717-.30438,2.74034-.13946.36506-.34851.95384-.40048,1.34994-.18671.50483-.59342,1.31638-.6405,1.9819-.2862.44977-.34132,1.1782-.3977,1.70226-.28823.56295-.27474,1.32846-.35413,1.9705-.54398.53767-.35523,1.28141-.58258,2.12591-.50103,1.05898-.78165,2.40529-.88509,3.5979-.28009.4797-.29371,1.22018-.34983,1.74977-.31702.99585-.58285,2.36943-.6942,3.28807-.10931.40066-.46822,3.06827-.59975,3.49265-.19073.81961-.49911,1.8936-.59264,2.75943-.67897,1.32782-.32885,1.95375-.27618,2.93121h.89185l73.95512-.00003h.89951l.09491-.89447c.03665-1.22113.70665-2.75151-.19824-3.81967.01571-.39597-.21961-.96754-.48184-1.24127-.13747-1.22459-.49855-2.36109-1.09569-3.20312-.32328-.6026.0343-3.35597-.77505-4.73826-.07327-.1442-.16136-.80106-.16136-1.32233-.00587-.51276-.42613-1.56039-.42836-2.10288-.05178-1.18673-.65986-2.01475-.74922-3.14364.00136-.73962-.71048-2.66528-.97031-3.28961-.01132-.1943-.01979-.39989-.05327-.60068.03016-.44204-.15598-.88207-.38449-1.09244-.12508-.7381-.24046-1.56284-.27121-1.88828-.07825-.82883-1.09552-4.20886-1.23701-4.67358.01477-1.6184-.69771-5.01986-1.54878-5.35606-.58671-.38519-1.9482-.2352-2.7004-.17668-.77209-.00546-1.36414.2043-1.9382.57486-.98504.24228-4.34723.26264-5.01169.34912-.64369-.12073-1.57777-.42814-2.25663-.41753-.6584.02515-1.24003.12196-2.07015.11878-.49899-.00121-.95614-.1246-1.50194-.11867-.49598-.00545-.96177.10746-1.40099.11947-.55135-.01095-.88494-.25879-1.42487-.26251-.89403.01411-2.12911-.41022-2.96147-.43874-.60646.02425-1.38849.24843-2.08023.26595l-.11713.00238c-.69352-.04132-1.15713-.14085-1.81031-.05851-.37949-.08633-.77114-.33646-1.18403-.32863-.43452-.007-1.75011.3197-2.2211.31991-.57189-.12168-1.26674-.58252-1.90189-.56126-.51132-.00514-1.41303.19398-2.14665.35062-.62417-.03751-2.00504-.38397-2.5766-.37216-.66467.00748-1.13473.29953-1.63593.53423-.45033-.2441-1.14364-.48261-1.70495-.3269-.26717-.06765-.62361-.21287-.94107-.20743h0Z" fill="#797979"/>
    <g id="land">
      <path d="m12.69144,6.70506c.16432-.07347.40993-.13533.72038-.20083.31103-.06562.65232-.04141,1.07692-.12967.37631-.07822.82552-.26484,1.26649-.38357.26841-.07226.58662.0547.89016.04342.18944-.00704.35964-.14603.55002-.18093,1.19098-.2183,2.27834-.50508,2.87892-.40498,1.51406.25234,2.29947.70457,2.97238.70457s2.02762-.44159,2.61642-.44159c.22045,0,.60841.21139,1.00462.15456.66199-.09497,1.29608-.52475,1.6118-.41951.16129.05376.57462.14715,1.01566.08832.27917-.03724.50759-.1452.81694-.19872.32345-.05595.70813.00459.99358-.04416.35981-.06145.63062-.28725.79968-.29135.19452-.00471.5549.16819.87836.20303.25463.02742.46124-.09421.71758-.02208.44283.12461.83392.39743,1.01566.39743.42057,0,1.08944-.57838,1.67824-.57838s2.30842.44611,2.72899.36199,1.48957-.34048,1.99426-.34048,1.31308.56127,1.90188.56127,1.88464-.31991,2.2211-.31991c.18428,0,.5939.23388.99629.31077.3323.0635.65983-.02742.85005-.02742.17224,0,.71454.12543,1.30707.10054.85431-.03588,1.74029-.26507,2.03829-.26507.50469,0,1.86798.43874,2.96146.43874.2944,0,.7206.24282,1.35642.26152.45054.01325.91243-.11089,1.43206-.11818.51726-.00725.9802.11526,1.47377.11818.90998.00538,1.75732-.10331,2.06424-.11705.69293-.03103,1.9087.41598,2.32927.41598.16185,0,.92977-.05353,1.82771-.1194.51035-.03743,1.07866.0182,1.5856-.01964.9189-.06858,1.67266-.22246,1.7727-.22246.25234,0,.8655-.52833,1.28608-.52833s2.24195-.25234,2.66252,0,.84116,2.57215.96629,3.05182c.08493.32556.04797,1.45779.13208,1.71013s1.14009,3.80261,1.20635,4.50428c.03664.38795.17188,1.34206.31191,2.14185.04133.23604.29084.32347.33059.51411.0071.03404.00689.31887.01385.35077.05003.22941.04154.68308.07846.75693.16823.33646.94154,2.46198.94154,3.05078,0,.13622.06304.36372.10615.61385s.0663.52287.15231.8077c.05592.1852.16449.34292.22615.52154.1586.45939.26308.90274.26308,1.16308,0,.67292.42837,1.85052.42837,2.10286s.0353,1.49755.36808,1.93118c.18464.24059.40338,1.94057.40338,2.6976s.05523,1.52573.30758,1.9463.69743,1.14573.78155,1.73453c.04133.28933.09473.66806.20673,1.23031.05043.25314.31859.4639.39329.67566.09705.27508.01638.73814.16639.82693.24707.14622.43458.65037.358,1.06391-.10084.54456-.26724,2.1127-.26724,2.1127l-73.95512.00005s-.10795-.94104.25219-1.42884c.17686-.23955.10439-.63757.2012-.95874.23364-.77508.33793-1.59105.47171-1.98527.1652-.48682.53988-3.32188.62399-3.57422.02123-.06368.14846-1.05721.32925-1.97011.08209-.41454.27255-.86398.37243-1.35479.07071-.34744.04592-.74069.11875-1.1065.04496-.22582.18726-.42114.23225-.64874.08988-.45473.0861-.94276.17257-1.38074.09032-.45747.27062-.86339.35195-1.26712.06908-.34292.28604-.61746.35513-.92429.16228-.72071.18992-1.3318.2159-1.44655.06477-.28607.21748-.16449.34005-.56135.09855-.31909.092-1.21169.2159-1.64086.04826-.16715.10107-.2179.15113-.39402.08808-.30991.07052-.82871.16193-1.13889.06755-.22923.16627-.33043.2321-.55055.06113-.20444.04631-.40283.10795-.58833.26497-.7974.4967-1.22043.55055-1.46274.02691-.12108.06483-.29833.10957-.51243.05676-.27161.22518-.50788.29525-.85855.08895-.44516.02362-1.04543.10255-1.47353.11632-.63091.2213-1.30309.2213-1.46274,0-.18932.15423-.81493.33465-1.13349.22038-.38911.47499-.4735.47499-.6585,0-.12404.0477-.7032.18352-1.34939.08193-.38978.234-.786.31908-1.17232.05607-.25459.04084-.54317.08574-.74382.08038-.35923.20306-.54807.20306-.54807Z" fill="#b3e67a"/>
    </g>
    <path id="front" d="m75.86524,38.20788c-.23759,0-2.5876.30368-2.86483.30368s-2.15195-.19806-2.45558-.19806c-.30368,0-2.11236.54127-2.29717.54127-.18486,0-.93739-.07918-1.13539-.07918-.19806,0-2.78565.2112-3.04969.2112s-5.29407-.53792-5.55811-.54127c-1.63315-.02059-6.07299.6469-6.31064.68654-.23759.03959-3.2213.13202-3.56457.13202-.34322,0-2.95726-.36966-3.11567-.36966s-1.10899-.05284-1.2938-.05284c-.18486,0-.92413.38286-1.21462.38286-.29043,0-2.20866-.65867-2.99839-.70543-.14499-.00859-.92265.4018-1.02822.4018-.10563,0-.69974-.22445-.87135-.22445-.17166,0-.6469.17166-.79211.22445-.14527.05278-1.75589-.23765-2.13875-.19806-.38286.03965-2.33681.07923-2.53481.07923-.19806,0-2.74607-.05278-2.98371-.05278-.23759,0-1.35978-.38286-1.53144-.40931-.17161-.02639-2.38954,0-2.62719,0s-1.55784.05284-1.86152.05284c-.30363,0-2.62724.47529-2.74601.47529-.11882,0-.78614-.39134-.95058-.40931-.50669-.0554-1.84827.39606-2.01993.39606-.17161,0-2.54801.21125-2.82524.21125s-1.84832-.43565-2.17834-.47529c-.33008-.03959-2.00736.57278-2.36383.61237s-1.64964-.00506-1.97966-.00506c-.33008,0-1.88791.23765-2.35001.23765-.20903,0-.61471.03874-1.06195.12462-.00233.00336-.00267.00808-.00512.01138-.36011.48781-.25215,1.42883-.25215,1.42883l73.9551-.00006s.16637-1.56813.26722-2.1127c.01303-.0703.00882-.14431.00757-.21762-1.10831-.16529-3.09121-.46227-3.26948-.46227Z" fill="#7faa4f"/>
    <path d="m5.82989,36.6277c-.06213.18304-.11865.46246-.18396.78119,1.55774-.4845,2.69363-.87927,2.85553-1.91376.86938.02225,1.20027-.04953,1.8623-.41406.26825-.0009,1.00234-.0717,1.40918-.10547.41149-.02326.89821-.49918,1.27441-.79492h.00098c.15097.19592.52693.2656.83401.2851.47444.12113.82601-.00591,1.16599-.38276l.00293.00293c.17403.22783.32564.42435.58398.42383.19858.02705.82466.12896.9209.12402.33811.14732.65867.403,1.10156.36816.36745-.01035.97332-.45839,1.28808-.62792.27511.1159.76531.62745,1.03613.77246.42129.25291.91964.60996,1.38769.68164.37655.08846.99556.49014,1.36621.49414.40717.26385,1.22539.05989,1.64648-.12695.14258.0127.625.2168.72949.28809,1.12575.48193,2.6717.52995,3.67578.59375.18945.01367,1.19531.30371,1.35254.37402.1875.1123.91406.37793,1.30371.37793.16979.09436,1.48281-.69329,1.81445-.88184.3027.00966.65707-.19656.93359-.25879.19141,0,1.17578.16211,1.49023.22461.84766.48683,1.26044.40863,2.39943.36908,1.37134.00203,1.34457.0182,2.79881-1.03509.26953-.17871,1.22266-.6709,1.42773-.7002.59171-.02362,2.11574-.87342,2.7627-1.42383.36034.02235.97141.07322,1.19336.04785.02344-.00195,2.63184-.71484,2.79688-.9873.08789-.06934.43359-.24023.5332-.25488.3048.00732.66875-.2654.9834-.43652.1748.09863.66309.36035,1.08203-.0625.28125-.28027,1.21973-.95801,1.43457-1.00488,1.15106-.06052,3.24965.0323,4.39258.12793.20337.1497,1.6511-.78077,2.08203-.96289,1.03026-.35429,1.60651-.3271,2.67285-.46289.27734.03223,2.98633.73047,3.26367.82715.14453.05371,1.47656.36914,1.95605.45117.10645.06738.31543.2168.55469.38574,1.08203.7627,1.30762.90137,1.48926.92285.57461.20712,2.10421.78162,2.21586.68061.29096-.00283.95586-.37585,1.34176-.57026.39106.30773.84754.81482,1.29297.80468.66472-.04231,2.26725-.34219,2.86944-.26531-.14073-.23196-.21602-.56417-.26044-.94379-.53051-.00886-1.88794.18076-2.55432.2843-.09375-.0332-.34277-.24902-.47559-.36426-.55664-.48242-.72461-.63965-1.66602-.15527-.19434.09863-.51855.26465-.59961.28027-.24476-.002-1.74975-.62794-1.94727-.65332-.2179-.06284-1.96486-1.42677-2.05957-1.31543-1.37389-.22206-3.78333-1.02249-5.38963-1.29984-.96096.10572-1.95149.12385-2.84473.47175-.25698-.00372-1.54388.7966-1.85744.957-1.11683-.09347-3.31241-.19553-4.47657-.13179-.58301-.00005-1.71484.94624-2.01758,1.20991-.01855-.00977-.03711-.02051-.05176-.02832-.43211-.35597-1.02881.05647-1.43066.32227-.28613,0-.85547.25098-1.12598.47363-.2959.13867-2.02637.7334-2.28809.77246-.2341.01819-.90818-.05033-1.17578-.05371-.30024-.05618-.92524.54371-1.26172.75977-.31651.13017-1.15045.60434-1.43457.66602-.5459,0-1.93066.84766-1.94336.85645-.28503.19164-1.03143.75576-1.27246.85547-.34627.00121-1.96376.05252-2.28125.05176-.27719-.03063-.65083-.33384-.94629-.37987-.18066-.03614-1.34179-.2422-1.67285-.2422-.30388-.00942-.65564.19717-.93359.25879-.17504-.09468-1.49119.72616-1.81445.88184-.16504,0-.70215-.17969-.8252-.24609-.88647-.41474-2.116-.56967-3.10938-.58398-.21289-.00977-1.66895-.26953-1.81445-.31055-.19531-.1582-.9375-.49316-1.30371-.49316-.40867-.01652-.88755.40068-1.27832.20605-.09277-.04004-.23047-.08203-.40234-.10059-1.08628-.51133-1.2748-.38046-2.01661-.87889-.52119-.26161-1.04029-.94771-1.5996-1.03615-.46285-.09068-1.07905.4453-1.50293.61816-.30746-.04365-.65006-.38055-.9795-.36424-.15289-.00143-.54505-.07997-.75976-.10842-.57445-.85162-.97687-.70149-1.62793-.02637-.17071-.01929-.36974-.06187-.53613-.06934-.00293-.00488-.01172-.0127-.02734-.02539-.12305-.10645-.37988-.32422-.74316-.25391-.29065.01765-.92292.65972-1.21582.82129-1.23081.15147-1.35604-.06068-2.32031.47656-.18359.04102-.84766.04102-1.06641.04102-.66536.03262-.68728.64625-.77832.97852-.11353.12549-.76746.54315-1.64178.82849-.02386.1109-.0459.20111-.06494.2572Z" fill="#0871b2"/>
  </g>
</svg>