<?xml version="1.0" encoding="UTF-8"?>
<svg id="Layer_2" data-name="Layer 2" xmlns="http://www.w3.org/2000/svg" viewBox="0 0 84 46.00001">
  <g id="Fire_Event_Highlight" data-name="Fire Event Highlight">
    <rect y=".00001" width="84" height="46" fill="none"/>
    <path id="highlight" d="m31.89369.00032c-.72684-.00007-1.32237.15976-1.74704.31789-.42926.02731-.8319.09079-1.19009.16583-.81708-.15072-2.03108.03301-2.64709.26904-1.05543-.10132-2.24305.13094-3.07132.32168-.65917-.20163-1.4353-.44558-2.46261-.58507-1.4994-.1377-2.7646.04773-4.49088.48024-1.08558-.03079-2.0821.27991-2.70766.48787-1.3258.10651-2.87666.54512-4.10749,1.35275-.93411,1.11464-1.70097,2.30959-1.89361,4.24578-.1232.54396-.27747,1.06049-.39237,1.65929-.5892,1.0665-.88111,2.24754-.96159,3.11788-.08817.54378-.2287,1.56133-.29298,2.42548-.12306.3662-.21843.69957-.28875,1.00956-.20171.48927-.47456,1.1487-.64168,1.92354-.2763.70656-.39147,1.39255-.45734,1.93523-.19362.59496-.27904,1.15711-.32885,1.62908-.41701.92924-.4816,1.69973-.53759,2.25047-.55533,1.36447-.81985,2.77175-.94554,3.76892-.25899.75981-.3356,1.47424-.38106,1.98973-.33405,1.17231-.5702,2.46683-.68899,3.35911-.10895.49947-.38324,2.43526-.51319,3.12435l-.00427.01385c-.20414.88487-.44587,1.72768-.60654,2.67911-.78591,2.04244-.50751,3.1693-.39021,4.27333.00001,0,.2033,3.78474.2033,3.78474,5.57405,0,77.25336-.00003,82.88491-.00003.08315-.78607.41227-3.89743.48902-4.62294l.00452-.15136c.17989-1.45174.67581-3.16934-.38749-5.3919-.11007-.41549-.26498-.82353-.45882-1.20859-.2189-1.16645-.58816-2.24149-1.09185-3.18044-.06165-1.36195-.0914-2.96444-.7617-4.5825-.00379-.97535-.23614-1.70217-.43967-2.48316-.08919-1.41053-.45818-2.19224-.74762-3.16204-.08262-1.25839-.61845-2.85339-1.01116-3.8779-.0312-.77028-.22635-1.53231-.55815-2.21549-.22622-1.84405-.3946-2.55717-1.35094-5.80284-.10232-1.80751-.64859-6.56842-3.55705-8.1766-1.76192-.96095-3.2527-.78637-4.8196-.68492-1.08365.01959-2.08986.25707-3.04943.72163-1.05539.08758-2.43913.11956-3.40357.16867-.73099-.1811-1.68838-.40901-2.65733-.38387-.63821.01714-1.29399.11577-1.91672.11767-.71219-.1143-2.00617-.16898-2.74904-.035-.36129-.10099-.96273-.23054-1.62752-.22692-.91461-.13866-1.91062-.4346-2.94199-.44137-.77134.01434-1.44011.16978-2.11747.26562-.42544-.0361-.7642-.07847-1.28723-.08441-.94882-.38664-2.42922-.34557-3.55266-.07812-.56818-.22091-1.41611-.47563-2.34194-.4612l-.02544.0007c-.68378.00323-1.38485.11871-2.2321.29263-1.38472-.29167-2.93177-.4887-4.21917-.04495-.3672-.07067-.76304-.11305-1.17252-.11148-.36025-.08806-.85823-.16445-1.35482-.15857h0Z" fill="#fff"/>
  </g>
</svg>