<?xml version="1.0" encoding="UTF-8"?>
<svg id="Layer_2" data-name="Layer 2" xmlns="http://www.w3.org/2000/svg" viewBox="0 0 23 31">
  <g id="Fire_Event" data-name="Fire Event">
    <polygon points="0 31 23 31 23 0 0 0 0 31" fill="none"/>
    <path d="m10.99121,30.87744C5.76562,30.87744.125,27.16064.125,21.15527.125,15.67676,2.7627,12.72656,4.88184,10.35645l1.21973-1.36377.21875.40186c-.1416-5.8457,3.43457-8.27295,3.61621-8.39209l1.2002-.78662.61426,1.29639c1.34668,2.8374,3.32227,4.69531,5.2334,6.4917,2.89648,2.72266,5.89062,5.53809,5.89062,11.33447,0,7.92822-6.16016,11.53906-11.88379,11.53906Z" fill="#fff"/>
    <path d="m21.625,19.33815c0,7.1595-5.478,10.28925-10.63425,10.28925-4.881,0-9.61575-3.5175-9.61575-8.472,0-5.0325,2.388-7.67175,4.4775-10.00875,1.0635,2.09775,2.2425,1.7685,2.2425,1.7685-2.03775-7.8735,2.5275-10.8675,2.5275-10.8675,3.55875,7.50375,11.0025,8.4345,11.0025,17.2905" fill="#ff8ef8" fill-rule="evenodd"/>
    <path d="m6.313,15.36697c.603,2.79375-1.38225,4.074-1.38225,7.33875,0,3.42375,3.648,5.74875,6.06,5.74875,3.165,0,6.9945-2.61225,6.9945-7.731,0-8.35875-6.87675-10.494-6.87675-10.494,1.581,5.97075-1.41825,8.4585-1.41825,8.4585-.7365-2.30175-3.37725-3.321-3.37725-3.321" fill="#ffb6fa" fill-rule="evenodd"/>
  </g>
</svg>