<?xml version="1.0" encoding="UTF-8"?>
<svg id="Layer_2" data-name="Layer 2" xmlns="http://www.w3.org/2000/svg" viewBox="0 0 44 22.00004">
  <g id="Map_Type_Vegetation" data-name="Map Type Vegetation">
    <rect y=".00004" width="44" height="22" fill="none"/>
    <path d="m16.39354,0h-.01379c-.27461.00334-.47584.10361-.61591.17276-.32709-.01669-.65938.03479-.96144.13354-.05557.00176-.11621-.00784-.12282-.01077-.43234-.15816-.90799.04349-1.28482.18192-.55094-.22587-1.35399.09574-1.92899.1629-.45882-.11243-.83713-.27429-1.48508-.37783-.67237-.08565-1.48036.12757-2.18811.29653-.44668-.09282-.86943.1088-1.2829.22527-.51708.03971-1.01395.12999-1.47267.37019-.22766.30005-.45775.78462-.46111,1.30389-.11447.3825-.24076.86272-.27332,1.23999-.27903.33695-.46946.95817-.47736,1.36279-.04207.16264-.1774,1.13332-.1606,1.43567-.09096.18467-.17935.50046-.2204.74026-.10557.22781-.33019.76041-.3532,1.07452-.15025.24805-.20138.66013-.21854.94116-.14608.31122-.16599.69072-.19392,1.03647-.27551.33987-.22033.78245-.33124,1.26923-.26315.51518-.43816,1.33103-.48633,1.96652-.15355.28902-.17672.68193-.20168,1.01337-.18401.57135-.31964,1.30438-.38634,1.82696-.06318.24607-.24974,1.6271-.32373,1.90457-.10574.43152-.27104,1.06214-.33713,1.51944-.42708.94693-.15996,1.42985-.11519,2.21063h42.8775l.09494-.89447c.05339-.87723.38816-1.57779-.12161-2.33975-.01167-.22459-.15628-.55759-.2809-.70346-.05546-.66239-.33679-1.38196-.63051-1.79968-.10699-.42499.06762-1.63195-.41469-2.6105-.02951-.10703-.05658-.36508-.05658-.55167.009-.31017-.21164-.84714-.23799-1.16974-.0145-.43306-.1376-.85752-.30841-1.22055-.05481-.18865-.06156-.38362-.10884-.56921-.02853-.52496-.37686-1.46365-.54263-1.87634-.00558-.09076-.01405-.18845-.02576-.27365.00313-.32254-.09008-.57436-.23877-.76581-.09669-1.057-.5216-2.62567-.81879-3.5415-.01464-1.08865-.4065-2.95698-1.06935-3.26827-.62034-.34477-1.3691-.16556-1.99959-.14246-.405.00236-.71897.18707-.95137.31717-.66114.13854-1.98738.10329-2.60777.17581-.4101-.09015-.86708-.23649-1.30739-.23062-1.0388.14489-1.76468-.07771-2.74026.06641-.27021-.02303-.46889-.1512-.7917-.1458-.48455.00182-1.1771-.24078-1.64524-.24376-.35068.00533-.79022.13647-1.17435.14814-.40008-.00781-.65162-.09637-1.01535-.02899-.52651-.33383-1.26129-.0953-1.89107-.00955-.74046-.38666-1.43648-.35383-2.31853-.11795-.77815-.13563-1.69029-.36416-2.3141.04587-.27059-.12449-.61002-.19998-.91428-.14337-.16229-.05018-.32269-.1044-.55002-.10626h0Z" fill="#797979"/>
    <g id="land">
      <path d="m5.7147,1.94697c.09129-.04082.22774-.07518.40021-.11157.17279-.03646.3624-.02301.59829-.07204.20906-.04346.45862-.14714.70361-.21309.14912-.04015.3259.03039.49453.02412.10525-.00391.1998-.08113.30557-.10052.66165-.12128,1.26574-.2806,1.5994-.22499.84115.14019,1.27748.39143,1.65132.39143s1.12645-.24533,1.45357-.24533c.12247,0,.33801.11744.55812.08586.36777-.05276.72004-.29153.89545-.23306.0896.02987.31924.08175.56425.04907.15509-.02069.282-.08067.45386-.1104.17969-.03109.39341.00255.55199-.02453.19989-.03414.35035-.15959.44427-.16186.10807-.00262.30828.09344.48798.11279.14146.01524.25625-.05234.39866-.01227.24602.06923.46329.22079.56425.22079.23365,0,.60524-.32132.93236-.32132s1.28246.24784,1.51611.20111.82754-.18916,1.10792-.18916.72949.31182,1.0566.31182,1.04702-.17773,1.23394-.17773c.10238,0,.32994.12993.5535.17265.18461.03528.36657-.01523.47225-.01523.09569,0,.39697.06968.72615.05586.47462-.01993.96683-.14726,1.13238-.14726.28038,0,1.03776.24374,1.64526.24374.16355,0,.40033.1349.75357.14529.2503.00736.5069-.06161.79559-.06566.28736-.00403.54456.06403.81876.06566.50554.00299.97629-.05739,1.1468-.06503.38496-.01724,1.06039.2311,1.29404.2311.08992,0,.51654-.02974,1.01539-.06633.28353-.0208.59925.01011.88089-.01091.5105-.0381.92925-.12359.98483-.12359.14019,0,.48083-.29352.71449-.29352s1.24553-.14019,1.47918,0,.46731,1.42897.53683,1.69546c.04718.18087.02665.80988.07338.95007s.63338,2.11256.67019,2.50238c.02035.21553.09549.74559.17328,1.18992.02296.13113.16158.17971.18366.28562.00394.01891.00383.17715.00769.19487.0278.12745.02308.37949.04359.42051.09346.18692.52308,1.36777.52308,1.69488,0,.07568.03502.20207.05897.34103s.03683.29049.08462.44872c.03107.10289.09138.19051.12564.28974.08811.25522.14615.50152.14615.64616,0,.37384.23798,1.02807.23798,1.16826s.01961.83197.20449,1.07288c.10258.13366.2241,1.07809.2241,1.49867s.03069.84763.17088,1.08128.38746.63652.43419.96363c.02296.16074.05263.37114.11485.6835.02801.14063.17699.25772.2185.37537.05391.15282.0091.41008.09244.4594.13726.08124.24143.36132.19889.59106-.05602.30253-.14847,1.17372-.14847,1.17372l-41.08618.00003s-.05997-.5228.14011-.7938c.09826-.13309.05799-.3542.11178-.53263.1298-.4306.18774-.88392.26206-1.10293.09178-.27045.29993-1.84549.34666-1.98568.01179-.03538.08248-.58734.18292-1.09451.04561-.2303.15141-.47999.20691-.75266.03928-.19302.02551-.4115.06597-.61472.02498-.12546.10403-.23397.12903-.36041.04994-.25263.04783-.52376.09587-.76708.05018-.25415.15034-.47966.19553-.70395.03838-.19051.15891-.34303.19729-.5135.09015-.40039.10551-.73989.11995-.80364.03598-.15893.12082-.09138.18891-.31186.05475-.17727.05111-.67316.11995-.91159.02681-.09286.05615-.12105.08396-.2189.04894-.17217.03918-.46039.08996-.63271.03753-.12735.09237-.18357.12894-.30586.03396-.11358.02573-.2238.05997-.32685.14721-.443.27595-.67802.30586-.81263.01495-.06726.03602-.16574.06087-.28468.03153-.15089.1251-.28215.16403-.47697.04942-.24731.01312-.5808.05697-.81863.06462-.3505.12294-.72394.12294-.81263,0-.10518.08568-.45274.18592-.62972.12243-.21617.26388-.26306.26388-.36583,0-.06891.0265-.39067.10195-.74966.04551-.21655.13-.43667.17727-.65129.03115-.14144.02269-.30176.04763-.41323.04465-.19957.11281-.30448.11281-.30448Z" fill="#b3e67a"/>
    </g>
    <path id="front" d="m40.81125,19.44854c-.13199,0-1.43755.16871-1.59157.16871s-1.19553-.11003-1.36421-.11003c-.16871,0-1.17353.30071-1.2762.30071-.1027,0-.52077-.04399-.63077-.04399-.11003,0-1.54759.11733-1.69427.11733s-2.94115-.29884-3.08784-.30071c-.9073-.01144-3.37388.35939-3.50591.38141-.13199.02199-1.78961.07334-1.98032.07334-.19068,0-1.64292-.20537-1.73093-.20537s-.61611-.02936-.71878-.02936c-.1027,0-.51341.2127-.67479.2127-.16135,0-1.22703-.36593-1.66577-.39191-.08055-.00477-.51259.22322-.57124.22322-.05868,0-.38875-.12469-.48408-.12469-.09537,0-.35939.09537-.44006.12469-.08071.02932-.9755-.13203-1.1882-.11003-.2127.02203-1.29823.04402-1.40823.04402-.11003,0-1.52559-.02932-1.65762-.02932-.13199,0-.75543-.2127-.8508-.22739-.09534-.01466-1.32752,0-1.45955,0s-.86546.02936-1.03418.02936c-.16868,0-1.45958.26405-1.52556.26405-.06601,0-.43675-.21741-.5281-.22739-.28149-.03078-1.02682.22003-1.12218.22003-.09534,0-1.41556.11736-1.56958.11736s-1.02685-.24203-1.21019-.26405c-.18338-.02199-1.1152.31821-1.31324.34021s-.91647-.00281-1.09981-.00281c-.18338,0-1.04884.13203-1.30556.13203-.11613,0-.3415.02152-.58997.06924-.0013.00186-.00149.00449-.00284.00632-.20006.271-.14008.7938-.14008.7938l41.08617-.00003s.09243-.87118.14846-1.17372c.00724-.03906.0049-.08017.0042-.1209-.61573-.09183-1.71734-.25681-1.81638-.25681Z" fill="#7faa4f"/>
    <path d="m1.90272,18.57066c-.03452.10169-.06592.25692-.1022.43399.86541-.26916,1.49646-.48848,1.58641-1.0632.48299.01236.66682-.02752,1.03461-.23003.14903-.0005.55685-.03983.78288-.05859.22861-.01292.499-.27732.70801-.44162h.00054c.08387.10885.29274.14756.46334.15839.26358.06729.4589-.00328.64777-.21264l.00163.00163c.09668.12657.18091.23575.32444.23546.11032.01503.45815.07164.51161.0689.18784.08185.36593.22389.61198.20453.20414-.00575.54073-.25466.7156-.34885.15284.06439.42517.34858.57563.42914.23405.14051.51091.33886.77094.37869.20919.04914.55309.2723.75901.27452.22621.14659.68077.03327.91471-.07053.07921.00705.34722.12044.40527.16005.62541.26774,1.48428.29442,2.0421.32986.10525.0076.66406.16873.75141.20779.10417.06239.50781.20996.72428.20996.09433.05242.82378-.38516,1.00803-.48991.16816.00536.36504-.1092.51866-.14377.10634,0,.65321.09006.82791.12478.47092.27046.70024.22701,1.33302.20504.76186.00113.74698.01011,1.55489-.57505.14974-.09928.67925-.37272.79319-.389.32873-.01312,1.17541-.48523,1.53483-.79102.20019.01241.53967.04068.66298.02658.01302-.00108,1.46213-.39713,1.55382-.5485.04883-.03852.24089-.13346.29622-.1416.16934.00407.37153-.14744.54633-.24251.09711.0548.36838.2002.60113-.03472.15625-.15571.67763-.53223.79698-.55827.63948-.03362,1.80536.01794,2.44032.07107.11298.08317.91728-.43376,1.15668-.53494.57237-.19683.8925-.18172,1.48492-.25716.15408.0179,1.65907.40582,1.81315.45953.0803.02984.82031.20508,1.0867.25065.05914.03743.17524.12044.30816.2143.60113.42372.72645.50076.82737.5127.31923.11507,1.169.43423,1.23103.37812.16164-.00157.53103-.20881.74542-.31681.21726.17096.47086.45268.71832.44705.36929-.0235,1.25958-.1901,1.59414-.1474-.07819-.12887-.12001-.31343-.14469-.52433-.29473-.00492-1.04885.10042-1.41907.15795-.05208-.01845-.19043-.13835-.26421-.20237-.30924-.26801-.40256-.35536-.92556-.08626-.10796.0548-.28809.14703-.33312.15571-.13598-.00111-.97209-.34886-1.08181-.36296-.12105-.03491-1.09159-.79265-1.14421-.73079-.76327-.12336-2.10185-.56805-2.99424-.72214-.53387.05873-1.08416.06881-1.58041.26209-.14276-.00207-.85771.44255-1.03191.53166-.62046-.05193-1.84023-.10863-2.48698-.07322-.32389-.00003-.95269.52569-1.12088.67217-.01031-.00543-.02062-.01139-.02875-.01573-.24006-.19776-.57156.03137-.79481.17904-.15896,0-.47526.13943-.62554.26313-.16439.07704-1.12576.40744-1.27116.42914-.13006.0101-.50454-.02796-.65321-.02984-.1668-.03121-.51402.30206-.70095.42209-.17584.07232-.63914.33574-.79698.37001-.30328,0-1.07259.47092-1.07964.4758-.15835.10647-.57302.41987-.70692.47526-.19237.00067-1.09098.02918-1.26736.02875-.15399-.01702-.36157-.18546-.52572-.21104-.10037-.02008-.74544-.13455-.92936-.13455-.16882-.00523-.36424.10954-.51866.14377-.09724-.0526-.82844.40342-1.00803.48991-.09169,0-.39008-.09983-.45844-.13672-.49249-.23041-1.17556-.31649-1.72743-.32444-.11827-.00543-.92719-.14974-1.00803-.17253-.10851-.08789-.52083-.27398-.72428-.27398-.22704-.00918-.49308.2226-.71018.11447-.05154-.02224-.12804-.04557-.22352-.05588-.60349-.28407-.70822-.21137-1.12034-.48827-.28955-.14534-.57794-.52651-.88867-.57564-.25714-.05038-.59947.24739-.83496.34342-.17081-.02425-.36115-.21142-.54416-.20236-.08494-.00079-.30281-.04443-.42209-.06023-.31914-.47312-.5427-.38972-.90441-.01465-.09484-.01072-.20541-.03437-.29785-.03852-.00163-.00271-.00651-.00705-.01519-.01411-.06836-.05914-.21105-.18012-.41287-.14106-.16147.00981-.51273.36651-.67546.45627-.68378.08415-.75336-.03371-1.28906.26476-.102.02279-.47092.02279-.59245.02279-.36964.01812-.38182.35903-.4324.54362-.06307.06972-.42636.30175-.9121.46027-.01326.06161-.0255.11173-.03608.14289Z" fill="#0871b2"/>
  </g>
</svg>