<?xml version="1.0" encoding="UTF-8"?>
<svg id="Layer_2" data-name="Layer 2" xmlns="http://www.w3.org/2000/svg" viewBox="0 0 44 22.00004">
  <g id="Map_Type_Burn_History" data-name="Map Type Burn History">
    <rect y=".00004" width="44" height="22" fill="none"/>
    <path d="m16.39354,0h-.01379c-.27461.00334-.47584.10361-.61591.17276-.32709-.01669-.65938.03479-.96144.13354-.05557.00176-.11621-.00784-.12282-.01077-.43234-.15816-.90799.04349-1.28482.18192-.55094-.22587-1.35399.09574-1.92899.1629-.45882-.11243-.83713-.27429-1.48508-.37783-.67237-.08565-1.48036.12757-2.18811.29653-.44668-.09282-.86943.1088-1.2829.22527-.51708.03971-1.01395.12999-1.47267.37019-.22766.30005-.45775.78462-.46111,1.30389-.11447.3825-.24076.86272-.27332,1.23999-.27903.33695-.46946.95817-.47736,1.36279-.04207.16264-.1774,1.13332-.1606,1.43567-.09096.18467-.17935.50046-.2204.74026-.10557.22781-.33019.76041-.3532,1.07452-.15025.24805-.20138.66013-.21854.94116-.14608.31122-.16599.69072-.19392,1.03647-.27551.33987-.22033.78245-.33124,1.26923-.26315.51518-.43816,1.33103-.48633,1.96652-.15355.28902-.17672.68193-.20168,1.01337-.18401.57135-.31964,1.30438-.38634,1.82696-.06318.24607-.24974,1.6271-.32373,1.90457-.10574.43152-.27104,1.06214-.33713,1.51944-.42708.94693-.15996,1.42985-.11519,2.21063h42.8775l.09494-.89447c.05339-.87723.38816-1.57779-.12161-2.33975-.01167-.22459-.15628-.55759-.2809-.70346-.05546-.66239-.33679-1.38196-.63051-1.79968-.10699-.42499.06762-1.63195-.41469-2.6105-.02951-.10703-.05658-.36508-.05658-.55167.009-.31017-.21164-.84714-.23799-1.16974-.0145-.43306-.1376-.85752-.30841-1.22055-.05481-.18865-.06156-.38362-.10884-.56921-.02853-.52496-.37686-1.46365-.54263-1.87634-.00558-.09076-.01405-.18845-.02576-.27365.00313-.32254-.09008-.57436-.23877-.76581-.09669-1.057-.5216-2.62567-.81879-3.5415-.01464-1.08865-.4065-2.95698-1.06935-3.26827-.62034-.34477-1.3691-.16556-1.99959-.14246-.405.00236-.71897.18707-.95137.31717-.66114.13854-1.98738.10329-2.60777.17581-.4101-.09015-.86708-.23649-1.30739-.23062-1.0388.14489-1.76468-.07771-2.74026.06641-.27021-.02303-.46889-.1512-.7917-.1458-.48455.00182-1.1771-.24078-1.64524-.24376-.35068.00533-.79022.13647-1.17435.14814-.40008-.00781-.65162-.09637-1.01535-.02899-.52651-.33383-1.26129-.0953-1.89107-.00955-.74046-.38666-1.43648-.35383-2.31853-.11795-.77815-.13563-1.69029-.36416-2.3141.04587-.27059-.12449-.61002-.19998-.91428-.14337-.16229-.05018-.32269-.1044-.55002-.10626h0Z" fill="#797979"/>
    <g id="land">
      <path d="m5.7147,1.94697c.09129-.04082.22774-.07518.40021-.11157.17279-.03646.3624-.02301.59829-.07204.20906-.04346.45862-.14714.70361-.21309.14912-.04015.3259.03039.49453.02412.10525-.00391.1998-.08113.30557-.10052.66165-.12128,1.26574-.2806,1.5994-.22499.84115.14019,1.27748.39143,1.65132.39143s1.12645-.24533,1.45357-.24533c.12247,0,.33801.11744.55812.08586.36777-.05276.72004-.29153.89545-.23306.0896.02987.31924.08175.56425.04907.15509-.02069.282-.08067.45386-.1104.17969-.03109.39341.00255.55199-.02453.19989-.03414.35035-.15959.44427-.16186.10807-.00262.30828.09344.48798.11279.14146.01524.25625-.05234.39866-.01227.24602.06923.46329.22079.56425.22079.23365,0,.60524-.32132.93236-.32132s1.28246.24784,1.51611.20111.82754-.18916,1.10792-.18916.72949.31182,1.0566.31182,1.04702-.17773,1.23394-.17773c.10238,0,.32994.12993.5535.17265.18461.03528.36657-.01523.47225-.01523.09569,0,.39697.06968.72615.05586.47462-.01993.96683-.14726,1.13238-.14726.28038,0,1.03776.24374,1.64526.24374.16355,0,.40033.1349.75357.14529.2503.00736.5069-.06161.79559-.06566.28736-.00403.54456.06403.81876.06566.50554.00299.97629-.05739,1.1468-.06503.38496-.01724,1.06039.2311,1.29404.2311.08992,0,.51654-.02974,1.01539-.06633.28353-.0208.59925.01011.88089-.01091.5105-.0381.92925-.12359.98483-.12359.14019,0,.48083-.29352.71449-.29352s1.24553-.14019,1.47918,0,.46731,1.42897.53683,1.69546c.04718.18087.02665.80988.07338.95007s.63338,2.11256.67019,2.50238c.02035.21553.09549.74559.17328,1.18992.02296.13113.16158.17971.18366.28562.00394.01891.00383.17715.00769.19487.0278.12745.02308.37949.04359.42051.09346.18692.52308,1.36777.52308,1.69488,0,.07568.03502.20207.05897.34103s.03683.29049.08462.44872c.03107.10289.09138.19051.12564.28974.08811.25522.14615.50152.14615.64616,0,.37384.23798,1.02807.23798,1.16826s.01961.83197.20449,1.07288c.10258.13366.2241,1.07809.2241,1.49867s.03069.84763.17088,1.08128.38746.63652.43419.96363c.02296.16074.05263.37114.11485.6835.02801.14063.17699.25772.2185.37537.05391.15282.0091.41008.09244.4594.13726.08124.24143.36132.19889.59106-.05602.30253-.14847,1.17372-.14847,1.17372l-41.08618.00003s-.05997-.5228.14011-.7938c.09826-.13309.05799-.3542.11178-.53263.1298-.4306.18774-.88392.26206-1.10293.09178-.27045.29993-1.84549.34666-1.98568.01179-.03538.08248-.58734.18292-1.09451.04561-.2303.15141-.47999.20691-.75266.03928-.19302.02551-.4115.06597-.61472.02498-.12546.10403-.23397.12903-.36041.04994-.25263.04783-.52376.09587-.76708.05018-.25415.15034-.47966.19553-.70395.03838-.19051.15891-.34303.19729-.5135.09015-.40039.10551-.73989.11995-.80364.03598-.15893.12082-.09138.18891-.31186.05475-.17727.05111-.67316.11995-.91159.02681-.09286.05615-.12105.08396-.2189.04894-.17217.03918-.46039.08996-.63271.03753-.12735.09237-.18357.12894-.30586.03396-.11358.02573-.2238.05997-.32685.14721-.443.27595-.67802.30586-.81263.01495-.06726.03602-.16574.06087-.28468.03153-.15089.1251-.28215.16403-.47697.04942-.24731.01312-.5808.05697-.81863.06462-.3505.12294-.72394.12294-.81263,0-.10518.08568-.45274.18592-.62972.12243-.21617.26388-.26306.26388-.36583,0-.06891.0265-.39067.10195-.74966.04551-.21655.13-.43667.17727-.65129.03115-.14144.02269-.30176.04763-.41323.04465-.19957.11281-.30448.11281-.30448Z" fill="#fff"/>
    </g>
    <path id="front" d="m40.81125,19.44854c-.13199,0-1.43755.16871-1.59157.16871s-1.19553-.11003-1.36421-.11003c-.16871,0-1.17353.30071-1.2762.30071-.1027,0-.52077-.04399-.63077-.04399-.11003,0-1.54759.11733-1.69427.11733s-2.94115-.29884-3.08784-.30071c-.9073-.01144-3.37388.35939-3.50591.38141-.13199.02199-1.78961.07334-1.98032.07334-.19068,0-1.64292-.20537-1.73093-.20537s-.61611-.02936-.71878-.02936c-.1027,0-.51341.2127-.67479.2127-.16135,0-1.22703-.36593-1.66577-.39191-.08055-.00477-.51259.22322-.57124.22322-.05868,0-.38875-.12469-.48408-.12469-.09537,0-.35939.09537-.44006.12469-.08071.02932-.9755-.13203-1.1882-.11003-.2127.02203-1.29823.04402-1.40823.04402-.11003,0-1.52559-.02932-1.65762-.02932-.13199,0-.75543-.2127-.8508-.22739-.09534-.01466-1.32752,0-1.45955,0s-.86546.02936-1.03418.02936c-.16868,0-1.45958.26405-1.52556.26405-.06601,0-.43675-.21741-.5281-.22739-.28149-.03078-1.02682.22003-1.12218.22003-.09534,0-1.41556.11736-1.56958.11736s-1.02685-.24203-1.21019-.26405c-.18338-.02199-1.1152.31821-1.31324.34021s-.91647-.00281-1.09981-.00281c-.18338,0-1.04884.13203-1.30556.13203-.11613,0-.3415.02152-.58997.06924-.0013.00186-.00149.00449-.00284.00632-.20006.271-.14008.7938-.14008.7938l41.08617-.00003s.09243-.87118.14846-1.17372c.00724-.03906.0049-.08017.0042-.1209-.61573-.09183-1.71734-.25681-1.81638-.25681Z" fill="#a3a3a3"/>
    <path d="m6.65247,11.10352c.05035.01349.09552.01898.1394.05878.24481.22205.5683.16791.85547.20197.19824.0235.39648-.02539.53595.16278.03357.04529.07971.10175.12427.07953.3382-.16907.68494.09863,1.01971-.02667.08398-.03137.16663-.04071.24902-.02106.11029.02625.57019.03473.65942.00629.01117-.00354.03143.02142.05035.03534-.01764.1073-.0708.19537-.14819.27075-.06403.06238-.10968.11719-.03809.21545.16223.22266.00983.27057-.17639.29041-.19202.02039-.37-.10339-.56421-.05603-.495.12067-1.05365-.07727-1.49988.30145-.03754.0318-.12531-.00244-.18707.00873-.34723.06299-.62982.22046-.89673.46881-.3855.35876-.22516.83221-.35126,1.24109-.02002.06488.02173.112.09338.14185.17755.07397.17511.22351.15759.38776-.05914.55609.15143.85596.68115,1.09387.12048.05408.27679.05719.36023.14825.24402.26624.495.18835.74127.03809.25134-.15338.57263-.11768.75006.11688.02972.03925.03271.12561.09204.10944.3407-.09277.55463.21191.80096.32074.47583.21008.93256.19373,1.40912.20264.08795.00165.16089-.02081.23334-.07794.20721-.16351.43329-.30475.63068-.47888.18176-.16028.42871-.22034.58783-.12659.22546.13275.54077.0993.69275.3938.07141.13837.31134.17621.28687.40485-.00494.04614.05322.08533.08789.06494.16168-.09509.20862.0257.28278.12653.07007.09534.15717.17792.26904.02899.05933-.07904.12408-.09973.19666.00885.19373.2901.46167.25562.75519.17737.22833-.06091.41071-.03119.38287.30115-.01984.23688.04968.46442.38531.3941.06012-.01263.09222.0238.11517.08099.04626.11542.12225.19092.21356.24542.23065-.12683.45929-.24146.51074-.21362.15442-.03424.34979-.14899.51862-.14374.09637,0,.31708.03125.52197.06409.24677-.16235.50372-.30078.83124-.30823.56244-.01282,1.12231-.07794,1.59167-.44464.02417-.01892.06268-.04956.08075-.04193.37213.15625.49841-.17761.68384-.35913.15167-.14838.31122-.23462.51569-.26715.31305-.04987.57166-.28058.90155-.27942.09595.00031.151-.06561.21307-.12347.23743-.22119.44769-.46667.73279-.64209.25037-.15405.27722-.62708.09662-.89081-.2597-.37909-.20642-.48651.19208-.66766.229-.10406.41486-.11688.6438-.04022.12366.04138.31189.06055.40399-.0047.35474-.2514.70813-.10516,1.05847-.03796.16766.03217.33154.05859.50073.05286.12091-.00403.22589.01392.31512.11182.2041.22388.46057.18542.6972.08667.1507-.06281.24487-.07166.39929.01605.33789.19196.72723.1347,1.08514.0719.17865-.03137.36298-.1748.354-.45251-.00781-.24091.24451-.34302.47131-.2265.02429.01245.05902.03339.07709.02496.28204-.13068.30023-.14777.52252-.13873.26978.01093.47992-.10358.68451-.2608.40094-.30817.83807-.41187,1.32007-.19653.16962.07587.30212.0144.33734-.15271.02924-.13892.09131-.25513.15259-.37451.12311-.24023.32281-.30798.53857-.15839.13507.09357.2713.10138.3988.05371.41071-.15356.8866-.19971,1.06744-.72504.06-.17413.25745-.29425.23865-.52509-.008-.09839.10767-.08459.17651-.08044.38696.02344.68768-.10406.77606-.50763.05652-.2583.32306-.38239.34106-.67822.01337-.22046.2558-.25287.44843-.09979.15027.11945.5304.01318.78247-.14264.22681-.14014.40741-.37622.72571-.36621.21008.00659.23413-.24658.37079-.35913.2088-.17206.01117-.24689-.09344-.38135-.08875-.11401.01196-.31738.06964-.46869.09613-.25189.02698-.67548-.1698-.85101-.11652-.10394-.17853-.21185-.08752-.35767.03931-.06305.07562-.10895.04926-.19873-.06348-.21606.09698-.31104.25964-.35895.13776-.04053.28381-.05286.42859-.06934-.08679-.51813-.61017-2.27966-.65448-2.41248-.04669-.1402-.02618-.76923-.07336-.95007-.06952-.26648-.30316-1.5553-.5368-1.6955-.23364-.14014-1.24554,0-1.47919,0s-.57428.29352-.71448.29352c-.0556,0-.47437.08551-.98486.1236-.28162.02106-.59735-.00989-.88086.01093-.4989.03662-.92548.06635-1.01544.06635-.23364,0-.90906-.24835-1.29401-.23108-.17053.00763-.64124.06799-1.14679.065-.27423-.00165-.53143-.0697-.81879-.06567-.2887.00409-.54529.07306-.79559.06567-.35321-.01038-.59003-.14526-.75354-.14526-.60748,0-1.36487-.24377-1.64526-.24377-.15546,0-.59955.10938-1.04596.13959.00653.14996-.07343.32678.09137.41907.12476.06989.0921.15045.08563.23499-.00909.11896-.11224.09436-.19275.11377-.28229.06793-.55609.11713-.74982.39954-.20166.29401-.60394.29126-.86487.04559-.08252-.0777-.16333-.12134-.27869-.12347-.30682-.00562-.61084.00305-.91272.06921-.1319.02893-.20697.09863-.23083.22552-.03333.177.18787.5993.36737.65906.19891.06622.38153.17499.59528.20502.24188.03406.47217.14636.72461.00684.11438-.06317.27283.01416.32629.11652.08276.15851.2298.23956.33716.36475.26422.30823.62134.56671.53418,1.05298-.01697.09479.06982.07617.11615.10846.13818.09644.35553.23816.27698.38184-.12231.22375-.43182.34473-.13403.6767.07794.08685-.58301.55518-.79437.54022-.49982-.0354-1.00079-.12671-1.48956.08551-.23798.10333-.48431.17151-.42688-.25299.0047-.03467-.03119-.07507-.04895-.11249-.08899-.18744.00464-.78729.14618-.93787.11407-.12134.39893-.17755.30676-.37085-.08563-.1795-.34943-.05493-.53314-.07672-.08362-.00995-.16974-.00323-.25446.00116-.11792.0061-.22516.10608-.35547-.0083-.1933-.16974-.427-.12311-.66321-.09332-.24084.03033-.50696.20868-.72662-.0697-.02319-.02942-.10156-.01184-.15271-.02325-.45917-.10242-.71527.27979-1.04407.46466-.17352.0976-.30035.2796-.52618.30566-.15997.01843-.1673.13123-.13843.26093.11542.5188.57654.68689.95563.93439.06268.04095.1712.00641.17432.13361.00269.11188-.05865.18024-.14307.2298-.09692.05695-.15564.02142-.18225-.08862-.01843-.07635-.07306-.0553-.12286-.02722-.11584.06549-.26569.24213-.21631-.10077.01532-.10602-.13873-.08179-.18231-.01172-.06848.10999-.0965.24384.05157.32721.12164.06854.22729.18085.39661.1264.08588-.02753.17267.01605.19934.1134.02234.08142.03595.1767-.02979.24097-.04858.04742-.14789.12146-.19287.05078-.1297-.20386-.30835-.07812-.4472-.06769-.24451.01843-.49756.1106-.44763.43451.03998.25922-.13666.27319-.29095.3009-.68951.12384-1.37152.26361-1.96576.66797-.03925.02667-.10541.04095-.14996.0285-.58612-.16327-1.18958-.19513-1.79077-.24518-.14618-.01221-.28259-.04333-.28003-.22894.00293-.20746.1676-.14258.28278-.15485.4104-.04382.63501-.45789.39368-.76862-.14398-.1853-.09753-.22546.09668-.25177.11853-.01605.21307-.08331.30292-.16174.349-.30444.77319-.31866,1.15302-.02802.0907.0694.19061.08655.26343.04315.21375-.12738.4549-.01398.66687-.09912.15356-.06165.20612.01312.2215.24426.04596-.15454.065-.21875.08319-.27985.11432.00415.06982.1347.14099.17029.0495-.04584-.01257-.15527.06403-.16321.14349.03314.01367.22192.1499.2005.23206-.03644.42194-.14423.4469-.41534.00574-.06207-.01318-.16699.04333-.17377.4942-.05908.25696-.46198.2326-.64191-.07025-.51892-.18835-1.03259-.21045-1.55933-.00677-.16248-.05011-.31244-.21625-.34741-.5105-.10748-1.02301-.21021-1.53925-.28284-.2088-.02942-.41345.00165-.57281-.18951-.09753-.11694-.26233-.11316-.38336-.04205-.16998.09991-.36475.10706-.53204.17529-.29889.12195-.6217.15479-.91266.32043-.36029.20502-.68164.57495-1.17444.42444-.25006-.07635-.49146-.06598-.74768-.00928-.1922.04254-.41632.05603-.59924-.0022-.27948-.08893-.38861.04828-.43726.25909-.03943.17096-.11169.23462-.27869.28558-.20197.06158-.35876.20856-.19159.45209.10938.15936.02209.21429-.11768.22589-.13965.01154-.22485.1123-.32886.17749-.11517.07214-.21259.20148-.20117.32996.01196.13416.18878.12152.31793.16333-.13715.14362-.2254.29352-.39545.35144-.13971.04761-.11853.18335-.15521.28436-.01782.04907.02222.12665.0752.11823.3028-.04779.57812-.01898.85907.13519.1369.0752.32996.05286.50232-.06635.216-.14941.37396.07111.47345.20203.06116.08051-.14996.2049-.23108.19177-.42542-.06879-.60559.27411-.86804.47809-.03925.03058-.09607.0769-.0946.11389.0036.08881.08917.06873.14789.0705.1394.00415.32825.0069.32257.17023-.01001.28534.22833.31116.37451.38721.16827.08752.34308.18658.26288.35455-.13904.29095-.13202.67041-.46509.85596-.0083.00458-.02344.0069-.0304.00244-.2821-.17902-.66589-.16351-.89502-.42053-.14569-.16351-.22845-.14313-.34888-.00879-.08405.09375-.1778.17859-.2796.03021-.26013-.37903-.66803-.71893-.35858-1.26123.03735-.06549-.01434-.08856-.05902-.12024-.07806-.05524-.12634-.12836-.16766-.22101-.20947-.47021-.21454-.46692-.71478-.34735-.05054.01208-.10626.01093-.15851.00562-.14447-.01465-.25098.04504-.31342.16913-.03998.07947-.08948.17285-.164.18457-.38763.06097-.63074.40295-1.00781.49585-.15643.03851-.28058.19342-.31921.39874-.08282.44061-.12225.88898-.29266,1.31555-.08752.21912.02826.42426.28613.49347Zm15.53912,4.05084c.06622-.06775.14703-.01373.18658.04785.08453.13184.20172.19556.35931.20294-.17035.01904-.34015.07806-.48669-.04108-.06451-.05249-.14142-.12555-.0592-.20972Zm-.9303-.01477c.20636-.03992.28986.16089.36957.31964.03204.0639.06024.12976.09436.20386-.09924.02954-.17706.05682-.2569.07574-.17371.04108-.31372.00342-.26245-.20721.03278-.13458-.24097-.33472.05542-.39203Zm-8.19202-2.54681c-.13593.09814-.3205.08087-.44995.19305.08667-.3125.17346-.34497.44995-.19305Z" fill="#ff00f0" opacity=".2"/>
    <path d="m3.38245,11.45813c.12384.03888.2309.10925.26605.20764.06793.19043.19678.2135.33545.22467.31207.02521.5144.23059.72302.41852.11414.10278.27985.14325.38287.16034.24463.04053.3656.16315.46527.3559.12372.23932.3866.27667.59698.36865.14496.06342.29852.11572.41479.21606.38995.33661.83508.5318,1.33929.63507.44714.09161.87518.25958,1.28351.46979.01849.00946.03986.02094.0592.0199.53876-.0293,1.04999.25153,1.612.10376.19604-.05151.46906-.05383.69269.05133.15417.07251.30878.05103.46387.0105.45575-.11914.91333-.2041,1.35803-.39484.57855-.24811,1.22253-.34393,1.80084-.60364.23682-.10638.43927-.19806.69659-.1167.10339.03265.20404-.02332.30231-.06781.94708-.42865,1.70166-1.11096,2.39948-1.85632.16705-.17841.38635-.15411.55042-.27252.21185-.15295.33832-.03448.52856.06091.20294.10168.47137.07275.71118.10101.07269.00854.20673.01019.20892.02777.04102.33307.29346.2049.47534.22772.04175.00519.08667.00555.12402.02209q.37091.16382.65338-.06818c.05481.00629.06012.04871.06647.0907.01172.07837-.02081.18347.104.1983.10736.0127.18463-.0285.21375-.14203.03455-.1347.12109-.26349.25836-.21613.13104.04517.30237.12201.2403.34314-.04169.14862.02539.14636.15631.10992.2406-.06696.33899-.26978.46185-.44238.06494-.09125.05157-.21295-.07367-.30188-.07947-.0564-.19238-.08673-.25183-.24298.40985.0332.78308.07556,1.11035.30475.0838.05872.15417.1394.2428.18781.24847.13568.2984.34009.19354.61389-.11176.29163-.35626.50415-.42249.82892-.05103.25031-.00006.46136.25549.49036.15845.01801.1936.08173.1911.22009-.00507.27576.01587.55292-.00513.82709-.01941.25311.13336.32501.31744.42712.24927.13831.5589.19275.74268.42206.19135.23883.4776.3421.7688.40417.19965-.11877.43298-.21307.61438-.06366.00818.00433.01843.01031.02875.01575.16821-.14648.797-.67218,1.12091-.67218.07043-.00385.1676-.00287.25012-.0047.23077-.31287.49036-.19702.7525-.04175.04022.00238.08051.00482.12073.0072.09467-.04272.20349-.06799.28156-.13123.37299-.30225.80713-.39917,1.27289-.45764.45374-.05695.90503-.02618,1.35687-.04474.09595-.00391.19684-.01221.28967.02985.2569-.03168.51776-.04926.77496-.07751.05768.00995.12939.0293.19055.0415.04889-.13318.19232-.12726.33154-.1308.18872-.00476.14911.12708.15002.2356.00507.00122.00922.00189.01428.00311.1012-.05072.20142-.07074.29797.01526.42816-.08411.84741-.15186,1.27795.03528.23267.10114.51038.00397.76398.14337.32886.18079.74194.12604,1.07263.36426.20947.15082.85974-.12482.96381-.3797.10291-.25214.25354-.47534.45782-.63336.2453-.18982.28357-.48407.4408-.71594.23828-.35144.67908-.42432.92126-.77393.16217-.23401.41949-.39484.59467-.62671-.00208-.02795-.01019-.06219-.01019-.08783,0-.14459-.05804-.39093-.14618-.64612-.03424-.09924-.09454-.18689-.12561-.28979-.04779-.1582-.06067-.30975-.08459-.44867-.02399-.13898-.05902-.26538-.05902-.34106,0-.32709-.42963-1.50793-.52307-1.69489-.02051-.04102-.01581-.29303-.04358-.42047-.00385-.01776-.00372-.17596-.00769-.19489-.02209-.1059-.16071-.15448-.18365-.28564-.07782-.44427-.15295-.97437-.17328-1.18988-.01813-.19189-.16962-.76727-.32422-1.31885-.1897.01917-.39734-.08459-.57709.04871-.06213.04608-.13873-.05212-.17889-.10291-.13171-.1665-.19373-.39502-.43427-.46143-.01343-.00372-.02765-.07007-.01978-.07538.27844-.18921.12506-.52448.26538-.7724.13818-.24426.32275-.3457.55786-.3811-.00592-.16083-.01318-.3147-.03259-.3891-.06952-.26648-.30316-1.5553-.5368-1.6955-.23364-.14014-1.24554,0-1.47919,0s-.57428.29352-.71448.29352c-.0556,0-.47437.08551-.98486.1236-.28162.02106-.59735-.00989-.88086.01093-.4989.03662-.92548.06635-1.01544.06635-.23364,0-.90906-.24835-1.29401-.23108-.17053.00763-.64124.06799-1.14679.065-.27423-.00165-.53143-.0697-.81879-.06567-.2887.00409-.54529.07306-.79559.06567-.35321-.01038-.59003-.14526-.75354-.14526-.60748,0-1.36487-.24377-1.64526-.24377-.16559,0-.65778.12732-1.13239.14728-.32916.01379-.63049-.05585-.72614-.05585-.10571,0-.28766.05048-.47229.0152-.22351-.04272-.45111-.17261-.55347-.17261-.18695,0-.90686.17767-1.23395.17767s-.77625-.31177-1.05658-.31177c-.2804,0-.87427.1424-1.10797.18915-.23364.04669-1.18896-.20111-1.51605-.20111-.32715,0-.69873.32129-.93237.32129-.10095,0-.31824-.15155-.56427-.22076-.1424-.0401-.2572.02747-.39868.01227-.17969-.01935-.37988-.11542-.48798-.11279-.09387.00226-.24432.12769-.44421.16187-.15863.02704-.37231-.00659-.552.02454-.17188.02972-.29877.08966-.45386.11035-.24506.03271-.47467-.01917-.56427-.04901-.17542-.05847-.52765.1803-.89545.23303-.22009.03156-.43561-.08588-.55811-.08588-.32715,0-1.07971.24536-1.45355.24536s-.81018-.25128-1.65137-.39142c-.33362-.05566-.93774.1037-1.59937.22498-.10577.01935-.20032.09662-.3056.10052-.16858.00623-.3454-.06427-.49451-.02417-.245.06598-.49457.16968-.70361.21313-.12885.02679-.24225.03577-.34827.04358-.00269.4447.10583.53662.73389.59503-.25635.16516-.06818.40759-.15125.60864-.03229.07819.0799.20129.16956.24109.11987.05316.24854.0155.3537-.07611.29205-.25439.68005-.23279.80255.10266.13275.3634.44745.32294.66608.32709.21088.00397.28589.14398.42572.20685.0799.03595.02917.14325-.03986.17865-.09235.0473-.20782.11505-.29541.09509-.45441-.10339-.90204-.04462-1.3526.01093-.19226.02368-.38251.01733-.53845-.1275-.0686-.06372-.18481-.09607-.23358-.04108-.26056.29376-.60498.13977-.85168.07953-.2558-.06244-.45197-.06976-.68304.02106-.0282.01111-.06152.00916-.09399.0094-.00031.00745-.00153.0224-.00153.02734,0,.10278-.14142.14966-.26385.36584-.10022.17694-.18591.52454-.18591.6297,0,.08868-.05835.46216-.12299.81262-.04382.23785-.00751.57135-.05695.81866-.03894.19482-.13251.32605-.164.47693-.0249.11896-.04596.21747-.06091.28473-.02991.13458-.15863.36963-.30585.81262-.03424.10303-.026.21326-.06.32684-.03656.12231-.09137.17853-.12891.30585-.05078.17236-.04102.46057-.08997.63275-.02783.09784-.05719.12604-.08398.21887-.06885.23846-.06519.73431-.11993.91162-.06812.22046-.15295.15289-.1889.31183-.01031.04559-.02222.23499-.06042.48364Zm30.82074-5.15149c.1178-.01343.22339-.03802.32788-.03381.09869.00403.19861-.06366.30341-.00079q-.43768.24127-.63129.03461Zm-.22467-1.49835c.52612-.17029,1.07947-.20428,1.59937-.09814.53418.10907,1.08209.27197,1.57611.70215-.34393.05756-.49274.28558-.66956.49463-.21381.25269-.28253.22375-.39465-.06238-.06219-.15881-.23572-.11798-.32867-.06152-.22278.13531-.44135.14655-.68988.10529-.19366-.0321-.40631-.0426-.51202.20312-.04083.09485-.14124.12701-.24445.09528-.09576-.02948-.14075-.11823-.11859-.20026.09393-.34784-.16956-.52509-.34369-.74066-.16803-.20801-.12585-.35596.12604-.4375Zm-1.66675,6.50708c.18665.0025.31927.18878.39746.3631.03827.08533-.30609.57654-.37177.55035-.23669-.09454-.23627-.34241-.31873-.48535-.00909-.26093.10901-.43054.29303-.4281Zm-3.78644,2.95312c-.17688-.0343-.2309-.22064-.34814-.32996-.0423-.03949.0752-.10175.15094-.08923.16632.02747.28577.10919.30371.36707,0-.00073-.04254.06451-.10651.05212Zm1.10565-.19257c-.00287.00208-.02405-.02142-.03668-.03302-.01221-.01288-.03656-.03467-.03455-.03748.02435-.03394.0448-.01862.06195.00934.02344.0177.0426.03717.00928.06116Zm-.26111-2.2002c.11499.0459.1358-.11298.23309-.11328.0144.00751.04431.01398.04657.0257.02216.11572.14221.23065.01215.34943-.05444.04974-.11749.08997-.17346.13818-.06067.05219-.0863.12036-.06793.19965.02936.12689.10944.03589.17053.04388.19196.02502.17859.2569.32758.34418.1012.05933.14978.22205.2522.26331.31085.12518.2594.39844.28821.63281.0141.1145-.052.22247-.1864.26056-.146.04132-.14435-.06097-.17291-.15472-.03027-.09918-.11182-.10468-.16052-.02051-.13007.22479-.17694.15564-.22559-.04443-.0191-.07874-.56769-.18134-.63141-.12537-.05615.04926-.05969.11121.01495.15253.04999.02771.14886.03088.08527.11786-.04016.05499-.11755.1037-.18402.11273-.07037.00952-.10211-.07092-.09369-.13556.01245-.0946-.09814-.18109-.0238-.27209.28546-.34937-.05157-.24194-.19153-.25256-.27765-.02112-.57507.06317-.80542-.1745-.18573-.19165-.35858-.39526-.54694-.58521-.12396-.125.02203-.24091.18781-.25818.2193-.02277.44128.02863.66058-.05182.13324-.04895.11511-.08728.10455-.21985-.03021-.38019-.41809-.51575-.5224-.85315-.04419-.14301-.33844-.1756-.54626-.13721-.07532.01392-.16589.10101-.2149-.02167-.04205-.1051.05939-.14337.12628-.19116.06934-.0495.13678-.09882.16809-.18408q.10791-.29431.40515-.50269c.29974.77905,1.10071,1.2771,1.79401,1.16699-.07147.16296-.22382.29755-.12982.49023Zm-3.08179-8.92023c.14709-.01263.29224.00031.4295-.0838.10297-.06311.18591-.06207.28931.06549.12836.15839.36688.13043.5528.12488.27863-.00824.54858-.16589.83545.01257.11017.06848.20496-.06879.30225-.12946.29883-.18622.57764-.10547.6004.16565.00256.03033.02448.07135.01178.08887-.36841.50977-.7049,1.05231-1.31635,1.31989-.13275.05811-.15784-.0307-.19434-.12854-.16132-.43195-.57019-.44952-.94727-.55084-.37061.1889-.35852-.14398-.4032-.34558-.03168-.14294-.11761-.07312-.1792-.09918-.1449-.06122-.31635-.11432-.29065-.31494.02466-.19244.19702-.11542.30951-.125Zm-3.36993,3.5188c.13782-.27533.11169-.63623.40808-.82727.23077-.1488.32245-.28619.02191-.45526-.05377-.03027-.13861-.10614-.10541-.14093.22467-.2356.03406-.55463.1825-.80957.10364-.17804.22333-.29224.42419-.3327.14368-.02893.28699-.06329.41241-.15076.08539-.05963.19073-.07013.26154.01404.31622.37573.802.591,1.00372,1.08112.03589.08716.03912.18079.09351.2746-.24817.27722.13501.33093.21112.38696.24878.18323.12518.28387-.01013.42181-.11133.11353-.30786.22253-.01514.36499.07391.03601.0509.13708-.00732.19427-.15796.15509-.32062.30548-.48358.45538-.17603.16199-.37762.03259-.5423.00201-.49774-.09235-.96191.00983-1.4223.15686-.18066.05768-.26373.04968-.25037-.15808.00647-.10034-.01398-.18903-.10156-.2525-.07764-.05627-.11682-.15314-.08087-.22498Zm-4.53918-1.25671c.29999-.16412.57318-.41534.85254-.31195.33173.03882.55792-.03418.77856.11761.12.08252.30768.03003.4552-.04883.16193-.08661.66736.17163.70789.35577.01721.07837-.03198.15582-.07861.14587-.37646-.08063-.59363.10107-.8186.38135-.09796.12207-.36914.1189-.56531.14471-.19684.02594-.39465.01361-.59442.06189-.28479.06891-.61395-.19189-.67834-.50085-.01227-.05914-.04608-.09039-.09149-.11945-.15424-.09863-.07898-.1651.03259-.22614Z" fill="#ff00f0" opacity=".3"/>
    <path d="m1.90271,18.57062c.01062-.03113.02283-.08124.03607-.14288.48578-.15851.84906-.39056.91211-.46027.0506-.18457.06274-.52551.43243-.54358.12152,0,.49042,0,.59241-.02283.53571-.29846.60529-.1806,1.28906-.26477.16272-.08972.51398-.44647.67548-.45624.20184-.03906.34448.08191.41284.14105.00873.00708.01361.01141.0152.0141.09247.00415.20306.02783.29785.03851.36169-.37506.58527-.45844.90442.01465.11926.01581.33716.05945.42212.06024.18298-.00903.37335.1781.54413.20233.23547-.09601.57782-.3938.83496-.34338.31073.04913.59912.4303.88867.57562.41211.27692.51685.20422,1.12036.48828.09546.01031.172.03363.22351.05585.2171.10815.48315-.12366.71021-.11444.20343,0,.61572.1861.72424.27399.08087.02277.88977.16711,1.00806.17249.55188.008,1.23492.09406,1.72742.32446.06836.03687.36676.13672.45844.13672.17963-.08649.91077-.54254,1.00806-.48993.15442-.03424.34979-.14899.51862-.14374.18396,0,.82904.11444.92938.13452.16412.02557.3717.19403.5257.21106.17639.00043,1.07501-.02808,1.2674-.02875.13391-.05542.54858-.36877.70691-.47528.00708-.00488.77637-.47577,1.07965-.47577.15784-.0343.62115-.29773.797-.37006.18689-.12.53412-.45331.70093-.42206.14868.00189.52319.03992.6532.02985.14545-.02173,1.10681-.35211,1.27118-.42914.15027-.12372.46661-.26312.62555-.26312.22327-.14771.55475-.37683.7948-.17908.00818.00433.01843.01031.02875.01575.16821-.14648.797-.67218,1.12091-.67218.30548-.01672.74054-.01196,1.17816.0022.21442-.36981.64001-.38495.97412-.53082.4339-.04144.98834.01135,1.47583.03741.07202-.02405.14417-.04736.21796-.06531-.14209-.56537.08228-.67303-.02081-.99164-.10522-.23877-.28412-.4339-.41351-.65497-.11658-.19922-.39142-.19141-.4566-.35449-.2088-.52271-.64624-.82782-1.02509-1.19269-.22192-.21375-.31927-.44281-.15582-.75732.28516-.47211-.52466-.77777-.18085-1.31989.11823-.19733.12408-.51508-.15961-.69879-.23749-.15381-.51746-.15753-.7774-.19476-.43066-.0744-.67822-.83606-1.20795-1.05188-.21356-.12573-.31244-.42853-.61877-.40466-.01208.00092-.03284-.0282-.03912-.04681-.18109-.53448-.67426-.55664-1.10846-.67035-.14886-.06781-.35999.1394-.1759.26288.08899.07172.05444.16663-.02905.20795-.24231.17627-.47174.6781-1.14014.42828-.4259-.20453-.867.09814-1.29578.16119-.13776.0365-.1958.0094-.23291-.15332-.07147-.31348-.12366-.59283-.01837-.93146.03571-.31989.59381-.46503.44104-.70392-.14545-.14703-.22729.15521-.37201.13611-.11469-.0152-.38458-.42596-.35535-.56995.03644-.17914.15009-.31891.34613-.29987.16956.01648.19-.0343.24384-.18909.05939-.1709.16681-.36969.37006-.44739.16089-.06146.40002-.00549.47382-.18512.08765-.21326-.17468-.30261-.26459-.45758-.20789-.35846-.51294-.57428-.95575-.52051-.94672.07001-1.85419.32135-2.80005.41669-.37555.03149-.74268-.09155-1.12335.02191-.22327.06653-.48785.15509-.74133.0163-.23883-.13086-.48254-.0675-.69189.06445-.24622.15515-.48761.10962-.75385.09473-.31378-.01746-.67224-.08105-.91589.23486-.23322.30237-.51038.59766-.89917.60864-.40131.01129-.58417.16168-.63135.53821-.02075.16577-.16321.19617-.28796.1792-.14062-.01917-.35107.13092-.40985-.05603-.06543-.20837-.19232-.20154-.33704-.19641-.42157.01495-.84637.08185-1.26312.047-.32513-.02716-.633.02985-.87225.1839-.64429.50208-1.29211-.13934-1.94714.2226-.40186.29047-.94257.34229-1.34387.60956-.32104.30463-.78229.36847-1.12817.63885-.27252.07269-.63678-.11456-.92041-.15533-.40338-.0719-.71649.23706-1.1684.22522-.04004.18982-.13037.32043-.16138.46899-.0249.11896-.04596.21747-.06091.28473-.02991.13458-.15863.36963-.30585.81262-.03424.10303-.026.21326-.06.32684-.03656.12231-.09137.17853-.12891.30585-.04236.14374-.04797.35724-.07526.52759.42676.09808.91864.20966,1.25232-.14368.29694-.32269.62402-.30298.9342.00757.16003.16022.27844.38568.5918.30621.1073-.02722.21844.17981.21643.29407.07031.50977-.36853.68018-.77759.83643-.64044.15564.49896.68317.75848.65607.58966.01178.8869.27142,1.14087.22638.16388-.02582.30536-.02814.40186.13892.02362.04102.09985.0976.12195.08661.27631-.13708.53815-.08154.80518.02875.06451.02661.14056-.00128.19098-.07611.08905-.13202.25922-.08099.3092-.02368.20789.23816.39709.20612.58942-.00903.13159.21967-.12134.31128-.08038.49878.03076.07819.1665.12726.06891.23901-.10022.11469-.25244.09436-.35626.05786-.27563-.1048-.55243.03961-.79932.06781-.36359-.18042-.67395-.0321-.97607.1488-.21039.12598-.45483-.00946-.67352.12396-.2533.1546-.48627.3219-.70111.52826-.36511.35052-.70276.33276-1.05835-.02142-.31927-.31793-.48328-.34509-.88135-.1228-.08875.04956-.15704.008-.23651.0069-.71808-.10663-1.15033.45166-1.91528.72473-.01184.00604-.01959-.00049-.03009.00146-.01538.03754-.03302.07434-.04095.1142-.04047.20325-.02667.42169-.06598.61475-.05548.27264-.16132.52234-.20691.75269-.1004.50714-.17114,1.05908-.18292,1.09448-.04669.1402-.25488,1.71521-.34668,1.98566Zm25.64771-8.13678c.32996.78021.99115,1.02588,1.76105,1.1524-.09631.13251-.22272.29498-.10901.4339.08026.09814.12073-.09918.21448-.13977.11041.17139.18835.32635-.02777.47992-.06665.0473-.13892.11475-.10022.21362.03851.09851.11963.05011.19067.0437.21851-.01984.15778.21808.20978.30426.18872.315.78125.65527.50195,1.09363-.2193-.25562-.34277-.24139-.51331.05725-.17163-.14764-.23224-.48785-.57812-.33307-.33209-.4184-.82635-.10956-1.22296-.27039-.25934-.10522-.27075-.38727-.47156-.52716-.42975-.2323-.20953-.47614.19568-.43616.20428.01654.38855-.04889.54803-.08423.03796-.45105-.35443-.66571-.49365-1.01715-.11951-.21783-.52826-.16418-.76105-.17236-.00909-.0285-.01825-.05701-.02734-.08557.36743-.11707.26459-.67999.68335-.71283Zm-1.48254,4.13177c-.04669.24243-.46533.20667-.43964-.03894.0481-.30927.38281-.26721.43964.03894Zm-5.51105-2.67572c.01044.19336.00464.38092-.13898.53619-.06354.06873-.07428.15887-.0155.23181.0528.06543.14111.0423.21008.02679.35974-.08112.97351.07422,1.22772.31726.10126.09686.23444.1059.6521.02838-.33093-.23834-.60071-.48712-.96515-.5921-.0896-.02582-.1604-.0816-.18402-.15997-.02936-.0976.08704-.10095.13843-.14478.09521-.08105.19788-.15326.32202-.24792.0423.13092.00873.28406.1767.29193.13416.00623.08386-.1189.11566-.18689.05798-.1239.20068-.22424.28967-.21289.1098.01398.19409.16547.20642.30316.01782.19812.03973.23389.26385.13635.45648-.21008.52979-.65924.0249-.87653.23151-.02148.41284-.17218.55304.07947.02264.04059.05597.05914.10382.03809.39441-.17896.53571.2981.85303.3493.04181-.00159.11053.01776.09735.05597-.08496.24658.14166.52216-.08575.758-.1756.18213-.25067.42303-.35333.65192-.2254.5611.47931.27582.39301.70453-.01135.25476.0578,1.58551-.45068,1.20764-.24884-.32922-.78143-.41949-.88177-.82532.0061-.05267-.00854-.1217-.06879-.12726-.35291-.03247-.66779-.32489-1.05414-.1452-.10419.04846-.26416.06262-.33167-.02686-.19244-.25494-.35785-.1358-.58374-.04633-.37427.14783-1.15771-.18188-1.22882.43365-.02502.34552-.35187.40778-.64935.25104-.34943-.18408-.32526-.565-.54364-.80493-.0271-.15149-.36719-.22876-.22687-.38385.12396-.1203.10223-.44666.44568-.33875.14258.04486.32428-.08185.50995.02295.10291.05811.19275-.0174.18555-.19287-.01111-.27002-.12476-.56836.14191-.80408.05981-.05286.03308-.18127-.01276-.27216-.04462-.0885.02289-.13617.07434-.18793.07361-.0741.11243-.02179.17975.02661.09839.0708.19562.10565.3183-.03278.12848-.14496.28046-.05042.29169.15833Zm-5.8764-2.95984c.25244.03943.3703-.19257.49335-.35101.20721-.21637-.5636-.46545-.10901-.59015.41998-.10785.50964-.4754,1.03094-.38849.2038.00964.44067-.13873.586.13519.03461.06525.12213.07312.17102.04785.20862-.10773.43939.06427.6347-.05048.13367-.07855.25867.17578.31909.02991.07349-.17761.24847.17822.25073-.07568.27191.18567.46497.23297.51886-.16211.02557-.16913.07587-.28308.25525-.30548.07172-.00897.15375-.07941.11676-.10913-.18829-.15131.03156-.35706-.08856-.51617-.14716-.17633.26282-.32269.29376-.08588.08221.46075.53125.50293.83716.70013.08612.05548.1994.0415.18341.18848-.01422.1308-.12268.21686-.21063.18866-.15985-.05139-.34558.00873-.4809-.10614-.15314-.17932-.33569.11194-.19403.25696.23315.28491.23077.32245-.13922.39844-.52643.11462-.03815.77118-.60229.79596-1.08014.00854-1.88428.90387-2.91791.47968-.3515-.12061-.72595.0871-1.06165-.04419-.2981-.03381-.23608-.60321.11316-.43634Z" fill="#ff00f0" opacity=".6"/>
    <path d="m9.36334,14.68414c.09363.09155.3197.31439.05353.5451-.15759.13666-.11005.64093.06488.81097.48114.64893.91882,1.40649,1.85889,1.3703.05273-.00061.14105-.01184.15308.01202.15161.30011.49146.22363.70856.27155.33185.07324.59296.20392.81024.40881.21979.04425.8324.15179.93433.15643.55188.008,1.23492.09406,1.72742.32446.06836.03687.36676.13672.45844.13672.17963-.08649.91077-.54254,1.00806-.48993.15442-.03424.34979-.14899.51862-.14374.18396,0,.82904.11444.92938.13452.16412.02557.3717.19403.5257.21106.17639.00043,1.07501-.02808,1.2674-.02875.13391-.05542.54858-.36877.70691-.47528.00708-.00488.77637-.47577,1.07965-.47577.08496-.01849.2572-.10284.42676-.18854-.0675-.18842.25171-.27087.34705-.41602.16357-.1579.40479-.30341.45447-.4953.07404-.28577.20947-.39252.47021-.40894.36896-.02997.03979-.53741.3653-.70953.02643-.36938-.6239-.56677-.37286-1.04553.03479-.07117-.01318-.13562-.1062-.15912-.258-.06519-.44086-.19452-.39801-.50317.01001-.07208-.05542-.09473-.10236-.13782-.16461-.15131-.12189-.37476-.05231-.52338.11328-.242.336-.03607.51068-.04144.216-.00659.13599.16272.15863.2735.02521.12317-.09491.37616.21985.25647.04169-.01581.0752.013.09479.05939.07916.18762.19513.12079.2984.03064.09308-.08118.198-.16852.30884-.08972.64136.39862,1.23004-.3631,1.89789-.09082.07721.02057.17566-.11469.22345.0069.15222.38721.41083.1839.61353.09821.2243-.09479.35577-.25238.06049-.45502-.22101-.23657-.52917-.48169-.16748-.55066.28955-.08148.61108.01721.8725-.1626-.20593-.41083-.41498-.80902-.80304-1.10443-.16156-.08942-.32617-.03076-.48547-.04022-.0506-.21259.23895-.19269.23041-.34802-.01685-.30579.21185-.37201.42615-.50165.01373.62811.82562,1.01685,1.37201,1.14673.30865.0603.56879-.18823.69324-.43427.06421-.09381.32635-.12305.05658-.29187-.05255-.0329.01575-.12512.0943-.15582.72491-.18414.32385-1.02881.66174-1.41791.26959-.24902.12274-.38263.03455-.61365-.08167-.21387-.24896-.1106-.362-.18506-.32587-.21478-.67145-.39874-1.09131-.27008-.21039.15503-.2879-.09692-.17365-.26233.34717-.42938.30493-1.59235-.29291-1.7713-.16895-.01459-.35706-.13477-.5069.0318-.27887.30994-.71411.28918-1.03577.50555-.05756.0387-.09296.005-.12451-.04736-.35785-.62476-1.02081.07996-1.50104-.12054-.41235-.22137-.72925.14343-1.13287-.03595-.12262-.05945-.33685.0072-.41931.15082-.21832.38037-.65527.50671-.922.82806-.03888.04681-.14386.13129-.21844.02783-.2608-.36163-.83527-.50055-.77478-1.0918.01135-.11072-.09247-.18823-.16077-.21637-.6734-.42365-1.94519.03162-1.60071.87872.07343.22748-.00458.22327-.16003.31091-.26837.15125-.67114.19153-.67444.63672-.00037.04553-.02924.09735-.10535.08606-.49011-.14056-.43188.48608-.77112.56964-.38281.02466-.73883.17389-1.1109.20911-.38544.03644-.79169-.104-1.13831.18671-.50983.10565-1.09998.02539-1.6004.29419-.20813.11853-.49268.08887-.7171.09229-.242.00366-.48438-.24792-.78552-.14197-.23999-.09821-.35803-.23907-.67365-.23206-.34192-.01947-.4328.0575-.43372.40631.09741.44525-.43597.77368-.07275,1.05096.19287.14429.01947.26709-.0481.35675-.08191.1087-.1308.33142-.33557.25311-.29205-.11169-.5882-.15698-.89709-.15417-.11926.0011-.19659.00189-.20001-.18762-.00476-.26587-.23322-.35114-.47461-.31573-.21289.03125-.49249.12152-.37506.37988.13873.30536-.01703.6629.23749.93555.13434.14386.21881.29651.40906.08179.05261-.05939.12195-.10516.20715-.08862.07349.24292-.31116.27179-.20258.50012.16461.26868-.04822.29578-.2077.27966-.33453-.03375-.59412.12878-.85992.27539-.30676.16919-.37518.42737-.21777.76099.01636.52185-.15601.82861.31586,1.27716Z" fill="#ff00f0" opacity=".9"/>
    <path d="m1.90272,18.57066c-.03452.10169-.06592.25692-.1022.43399.86541-.26916,1.49646-.48848,1.58641-1.0632.48299.01236.66682-.02752,1.03461-.23003.14903-.0005.55685-.03983.78288-.05859.22861-.01292.499-.27732.70801-.44162h.00054c.08387.10885.29274.14756.46334.15839.26358.06729.4589-.00328.64777-.21264l.00163.00163c.09668.12657.18091.23575.32444.23546.11032.01503.45815.07164.51161.0689.18784.08185.36593.22389.61198.20453.20414-.00575.54073-.25466.7156-.34885.15284.06439.42517.34858.57563.42914.23405.14051.51091.33886.77094.37869.20919.04914.55309.2723.75901.27452.22621.14659.68077.03327.91471-.07053.07921.00705.34722.12044.40527.16005.62541.26774,1.48428.29442,2.0421.32986.10525.0076.66406.16873.75141.20779.10417.06239.50781.20996.72428.20996.09433.05242.82378-.38516,1.00803-.48991.16816.00536.36504-.1092.51866-.14377.10634,0,.65321.09006.82791.12478.47092.27046.70024.22701,1.33302.20504.76186.00113.74698.01011,1.55489-.57505.14974-.09928.67925-.37272.79319-.389.32873-.01312,1.17541-.48523,1.53483-.79102.20019.01241.53967.04068.66298.02658.01302-.00108,1.46213-.39713,1.55382-.5485.04883-.03852.24089-.13346.29622-.1416.16934.00407.37153-.14744.54633-.24251.09711.0548.36838.2002.60113-.03472.15625-.15571.67763-.53223.79698-.55827.63948-.03362,1.80536.01794,2.44032.07107.11298.08317.91728-.43376,1.15668-.53494.57237-.19683.8925-.18172,1.48492-.25716.15408.0179,1.65907.40582,1.81315.45953.0803.02984.82031.20508,1.0867.25065.05914.03743.17524.12044.30816.2143.60113.42372.72645.50076.82737.5127.31923.11507,1.169.43423,1.23103.37812.16164-.00157.53103-.20881.74542-.31681.21726.17096.47086.45268.71832.44705.36929-.0235,1.25958-.1901,1.59414-.1474-.07819-.12887-.12001-.31343-.14469-.52433-.29473-.00492-1.04885.10042-1.41907.15795-.05208-.01845-.19043-.13835-.26421-.20237-.30924-.26801-.40256-.35536-.92556-.08626-.10796.0548-.28809.14703-.33312.15571-.13598-.00111-.97209-.34886-1.08181-.36296-.12105-.03491-1.09159-.79265-1.14421-.73079-.76327-.12336-2.10185-.56805-2.99424-.72214-.53387.05873-1.08416.06881-1.58041.26209-.14276-.00207-.85771.44255-1.03191.53166-.62046-.05193-1.84023-.10863-2.48698-.07322-.32389-.00003-.95269.52569-1.12088.67217-.01031-.00543-.02062-.01139-.02875-.01573-.24006-.19776-.57156.03137-.79481.17904-.15896,0-.47526.13943-.62554.26313-.16439.07704-1.12576.40744-1.27116.42914-.13006.0101-.50454-.02796-.65321-.02984-.1668-.03121-.51402.30206-.70095.42209-.17584.07232-.63914.33574-.79698.37001-.30328,0-1.07259.47092-1.07964.4758-.15835.10647-.57302.41987-.70692.47526-.19237.00067-1.09098.02918-1.26736.02875-.15399-.01702-.36157-.18546-.52572-.21104-.10037-.02008-.74544-.13455-.92936-.13455-.16882-.00523-.36424.10954-.51866.14377-.09724-.0526-.82844.40342-1.00803.48991-.09169,0-.39008-.09983-.45844-.13672-.49249-.23041-1.17556-.31649-1.72743-.32444-.11827-.00543-.92719-.14974-1.00803-.17253-.10851-.08789-.52083-.27398-.72428-.27398-.22704-.00918-.49308.2226-.71018.11447-.05154-.02224-.12804-.04557-.22352-.05588-.60349-.28407-.70822-.21137-1.12034-.48827-.28955-.14534-.57794-.52651-.88867-.57564-.25714-.05038-.59947.24739-.83496.34342-.17081-.02425-.36115-.21142-.54416-.20236-.08494-.00079-.30281-.04443-.42209-.06023-.31914-.47312-.5427-.38972-.90441-.01465-.09484-.01072-.20541-.03437-.29785-.03852-.00163-.00271-.00651-.00705-.01519-.01411-.06836-.05914-.21105-.18012-.41287-.14106-.16147.00981-.51273.36651-.67546.45627-.68378.08415-.75336-.03371-1.28906.26476-.102.02279-.47092.02279-.59245.02279-.36964.01812-.38182.35903-.4324.54362-.06307.06972-.42636.30175-.9121.46027-.01326.06161-.0255.11173-.03608.14289Z" fill="#0871b2"/>
  </g>
</svg>