<?xml version="1.0" encoding="UTF-8"?>
<svg id="Layer_2" data-name="Layer 2" xmlns="http://www.w3.org/2000/svg" viewBox="0 0 99 54">
  <g id="Fire_Danger_Meter_Color" data-name="Fire Danger Meter Color">
    <rect width="99" height="54" fill="none"/>
    <path d="m98.82434,53.5c.10626-1.32092.17566-2.65216.17566-4C99,22.20557,76.79395,0,49.5,0S0,22.20557,0,49.5c0,1.34784.0694,2.67908.17566,4h98.64868Z" fill="#979797"/>
    <path d="m97.82178,53.5c.1084-1.32056.17822-2.65192.17822-4C98,22.75684,76.24316,1,49.5,1S1,22.75684,1,49.5c0,1.34808.06982,2.67944.17822,4h96.64355Z" fill="#eee"/>
    <path d="m78.63867,28.35449c-4.45996-6.13574-10.87305-10.79395-18.05664-13.11572-7.15234-2.3125-15.05859-2.30664-22.20801.01367-7.13379,2.31592-13.51172,6.94287-17.95801,13.02832-4.63086,6.33594-7.02051,13.84863-6.91211,21.72607h71.99219c.1084-7.84473-2.2627-15.33203-6.85742-21.65234Z" fill="#797979"/>
    <path id="extreme" d="m84.48035,49c-.10352-7.31665-2.44037-14.09125-6.37622-19.66418l-27.06555,19.66418h33.44177Z" fill="#dd7f91" fill-rule="evenodd" isolation="isolate"/>
    <path id="very_high" data-name="very high" d="m50.45093,48.19122l27.05634-19.65747c-4.18286-5.57831-9.98785-9.86078-16.71985-12.15552l-10.33649,31.81299Z" fill="#dd8f73" fill-rule="evenodd" isolation="isolate"/>
    <path id="high" d="m49.5,47.88196l10.33716-31.81506c-3.26898-1.0097-6.73669-1.56689-10.33716-1.56689s-7.06781.55829-10.33679,1.56799l10.33679,31.81396Z" fill="#d6c563" fill-rule="evenodd" isolation="isolate"/>
    <path id="moderate" d="m48.54907,48.19122l-10.33673-31.81378c-6.73273,2.29413-12.5387,6.5769-16.7218,12.15472l27.05853,19.65906Z" fill="#5bb9dd" fill-rule="evenodd" isolation="isolate"/>
    <path id="low" d="m47.96143,49l-27.06525-19.66394c-3.93579,5.57294-6.27301,12.34723-6.37653,19.66394h33.44177Z" fill="#68c1aa" fill-rule="evenodd"/>
    <path id="_5" data-name="5" d="m76.85156,39.15137l3.11914-.72266.85938,2.64551-.71484.23242-.65723-2.02246-1.70508.39648c.25684.19336.43262.43555.52734.72461.15332.47461.09082.90625-.18945,1.2959s-.73145.68555-1.35254.8877c-.62988.2041-1.17188.21777-1.62695.04102-.4541-.17773-.76562-.52246-.93164-1.03516-.14844-.45703-.12109-.87695.08496-1.26172.2041-.38281.5625-.68164,1.07617-.89453l.22559.69336c-.33594.15625-.56445.33984-.69141.55566-.125.21387-.14648.44922-.06445.70215.09375.28711.29102.4707.5918.55176.30273.08008.66504.05176,1.08887-.08594.39844-.12988.69434-.32227.88965-.57715.19434-.25586.24219-.53125.14648-.82617-.08008-.24609-.20801-.4209-.38281-.52734l-.26172-.13281-.03125-.64062Z"/>
    <path id="_4" data-name="4" d="m67.03613,27.4541l.57617.41895-.38965.53613-.57617-.41895-.87305,1.20215-.62891-.45703.87305-1.20215-1.95509-1.41992.28126-.38867,4.5293-2.18945.66113.48047-2.49805,3.43848Zm-1.8877-1.37207l1.25879.91504,1.78809-2.45996-3.04688,1.54492Z"/>
    <path id="_3" data-name="3" d="m48.78613,19.90527h.49609c.31934,0,.56543-.09766.73828-.29395s.25977-.46484.25977-.80469c0-.75-.29004-1.125-.87012-1.125-.27832,0-.49707.10156-.65527.30273-.1582.20312-.2373.46777-.2373.7959h-.77344c0-.5127.15625-.93555.46777-1.26758.3125-.33301.71191-.49902,1.19824-.49902.50391,0,.90332.15723,1.19922.47266.2959.31445.44434.76074.44434,1.33789,0,.2959-.07715.57227-.23145.82812-.15332.25684-.35352.44531-.59961.56445.60352.22363.90527.72266.90527,1.49902,0,.57129-.15918,1.02637-.47656,1.36426-.31836.33887-.7334.50781-1.24609.50781-.50684,0-.91602-.16016-1.22852-.48145-.31152-.32031-.46777-.75195-.46777-1.29395h.77832c0,.33984.08203.61035.24609.81055.16406.20117.3877.30078.67188.30078.29004,0,.52051-.09766.69238-.29395.1709-.19629.25684-.49512.25684-.89648,0-.77637-.36719-1.16504-1.10254-1.16504h-.46582v-.66309Z"/>
    <path id="_2" data-name="2" d="m35.74219,27.38623l-2.89453,2.10254-.34277-.47266.05469-3.02783c.00488-.4624-.02051-.82129-.0752-1.07764-.05273-.25586-.1582-.4917-.31445-.70752-.2002-.2749-.42578-.45117-.67871-.5293-.25195-.07715-.48145-.04053-.69043.11084-.26367.19141-.40039.43018-.41211.71436-.01172.28662.10547.59961.35352.94092l-.62891.45703c-.3457-.47607-.49512-.95605-.44824-1.43945.04785-.4834.29492-.8877.74316-1.21338.41211-.29932.82812-.40869,1.24902-.3291.4209.08057.7832.33057,1.08789.75.37207.51172.5459,1.31152.51953,2.39746l-.05664,2.34424,2.14355-1.55762.39062.53711Z"/>
    <path id="_1" data-name="1" d="m24.97266,40.896l-.24023.74414-5.1543-1.67432.1582,1.46484-.70312-.22852-.21289-2.17578.03711-.11719,6.11523,1.98682Z"/>
    <g id="Extreme">
      <polygon points="85.2127 26.481 83.9177 24.625 82.0587 25.922 83.5667 28.085 83.0007 28.48 81.0317 25.658 86.2797 21.997 88.2237 24.783 87.6577 25.178 86.1747 23.051 84.4837 24.231 85.7787 26.086 85.2127 26.481" fill="#434343" fill-rule="evenodd"/>
      <polygon points="86.6697 28.8408 88.5817 28.7078 89.0197 29.4948 86.3367 29.5088 84.8797 31.8328 84.4457 31.0528 85.5937 29.4548 83.6277 29.5828 83.1917 28.7988 85.9357 28.7868 87.3637 26.5188 87.7977 27.2988 86.6697 28.8408" fill="#434343" fill-rule="evenodd"/>
      <path d="m90.8944,30.8145l-1.047.48.299.651-.57.263-.299-.651-2.684,1.232c-.171.078-.287.165-.349.261-.063.097-.062.213,0,.348.043.094.102.181.178.262l-.599.266c-.126-.136-.228-.287-.305-.455-.129-.28-.126-.538.006-.777.133-.238.381-.441.746-.608l2.684-1.232-.303-.659.571-.262.303.658,1.046-.48.323.703Z" fill="#434343" fill-rule="evenodd"/>
      <path d="m90.5242,34.8784c-.021-.108-.053-.222-.099-.339-.143-.371-.448-.552-.912-.542l-3.172,1.229-.28-.725,4.434-1.718.272.705-.445.186c.43.057.714.263.851.618.044.115.063.218.054.309l-.703.277Z" fill="#434343" fill-rule="evenodd"/>
      <path d="m91.3817,37.0791c-.093-.309-.267-.506-.523-.591-.256-.086-.611-.072-1.063.042l.535,1.794.102-.031c.426-.148.712-.318.856-.51.145-.191.176-.426.093-.704m-4.06,1.303c-.169-.567-.129-1.053.118-1.456.248-.405.698-.707,1.35-.908l.552-.165c.68-.202,1.256-.213,1.73-.032.475.181.791.536.95,1.067.159.533.108.983-.153,1.348-.26.365-.75.658-1.466.878l-.49.146-.759-2.543-.105.031c-.488.146-.815.344-.982.594-.167.25-.2.548-.096.893.065.219.164.399.297.542.133.142.31.26.533.352l-.356.528c-.55-.187-.925-.612-1.123-1.275" fill="#434343" fill-rule="evenodd"/>
      <path d="m92.9207,40.6646l-.432.084c.392.233.624.584.697,1.054.081.524-.09.925-.513,1.203.5.226.791.602.872,1.129.134.865-.338,1.392-1.415,1.579l-3.166.488-.117-.765,3.092-.476c.341-.053.586-.153.734-.3.147-.147.199-.366.154-.656-.036-.231-.154-.405-.356-.523-.202-.117-.444-.166-.725-.146l-3.149.486-.119-.773,3.127-.483c.65-.109.935-.424.854-.945-.059-.388-.296-.632-.708-.731l-3.522.543-.119-.764,4.7-.725.111.721Z" fill="#434343" fill-rule="evenodd"/>
      <path d="m93.1697,48.772c-.007-.322-.121-.56-.346-.711-.223-.15-.568-.232-1.035-.244l.035,1.872.105-.002c.451-.029.771-.116.963-.262.19-.145.283-.363.278-.653m-4.261.166c-.01-.592.157-1.049.504-1.372.348-.323.862-.493,1.545-.512l.575-.011c.709-.012,1.268.131,1.676.433.409.302.618.73.628,1.283.011.557-.159.976-.509,1.258-.348.281-.898.433-1.648.452l-.51.01-.049-2.654-.109.002c-.51.009-.879.112-1.107.308-.227.196-.339.474-.332.834.004.229.051.43.141.602.09.173.229.334.42.482l-.485.414c-.48-.328-.727-.838-.74-1.529" fill="#434343" fill-rule="evenodd"/>
    </g>
    <g id="High">
      <polygon id="Fill-28" points="46.4676 10.0596 45.6656 10.1636 45.2856 7.2296 42.7326 7.5606 43.1116 10.4936 42.3146 10.5966 41.4926 4.2506 42.2906 4.1476 42.6436 6.8756 45.1976 6.5456 44.8446 3.8176 45.6466 3.7136 46.4676 10.0596" fill="#434343" fill-rule="evenodd"/>
      <path id="Fill-29" d="m48.3533,10.0152l-.776.029-.18-4.751.777-.029.179,4.751Zm-.165-6.014c.005.132-.027.243-.098.333-.069.091-.179.139-.329.145-.146.005-.258-.034-.334-.119-.076-.086-.117-.194-.122-.325-.005-.132.027-.245.097-.338.07-.094.178-.143.324-.149.147-.006.259.036.337.126.078.089.12.198.125.327h0Z" fill="#434343" fill-rule="evenodd"/>
      <path d="m50.0037,7.8389c-.02.532.044.926.191,1.182.148.255.401.39.758.403.386.014.683-.172.891-.56l.087-2.373c-.188-.397-.468-.601-.84-.615-.357-.013-.619.103-.786.347-.167.244-.262.625-.284,1.142l-.017.474Zm-.762-.47c.028-.74.183-1.295.466-1.665.283-.369.684-.544,1.202-.525.483.017.843.238,1.079.66l.06-.53.702.025-.175,4.796c-.021.588-.189,1.034-.502,1.338-.313.304-.739.446-1.278.426-.233-.009-.494-.076-.781-.202-.287-.126-.501-.277-.641-.452l.335-.525c.311.329.661.499,1.05.514.647.024.992-.317,1.036-1.022l.022-.619c-.265.362-.629.535-1.091.518-.493-.018-.869-.217-1.131-.598-.262-.38-.386-.917-.372-1.611l.019-.528Z" fill="#434343" fill-rule="evenodd"/>
      <path d="m54.9061,6.0571c.347-.338.748-.475,1.204-.41.832.118,1.175.734,1.028,1.847l-.446,3.127-.765-.108.441-3.094c.052-.368.027-.639-.073-.811-.102-.173-.276-.277-.522-.312-.191-.028-.372.012-.543.118-.171.106-.316.255-.438.448l-.488,3.419-.77-.109.952-6.683.771.11-.351,2.458Z" fill="#434343" fill-rule="evenodd"/>
    </g>
    <g id="Low">
      <polygon points="10.0213 41.917 10.5323 39.46 11.2083 39.601 10.5333 42.849 4.2683 41.547 4.4323 40.756 10.0213 41.917" fill="#434343" fill-rule="evenodd"/>
      <path d="m9.5223,37.7432c.466.15.861.176,1.187.079.325-.097.537-.3.636-.61.21-.652-.153-1.14-1.09-1.463l-.509-.164c-.463-.149-.859-.175-1.188-.077-.328.097-.542.301-.641.61-.098.305-.041.591.168.86.21.269.546.478,1.006.626l.431.139Zm-.665.603c-.658-.212-1.127-.539-1.408-.981-.281-.443-.337-.927-.168-1.451.169-.525.491-.886.968-1.085.476-.199,1.038-.199,1.684-.001l.478.154c.655.211,1.123.536,1.402.977.28.441.335.927.164,1.456-.169.525-.489.886-.962,1.083-.472.197-1.027.2-1.664.007l-.494-.159Z" fill="#434343" fill-rule="evenodd"/>
      <polygon points="13.0262 31.0122 10.2682 28.9162 10.5962 28.2202 14.4012 31.3012 14.1372 31.8612 10.6652 31.2502 13.3562 33.5192 13.0892 34.0832 8.2962 33.1022 8.6222 32.4102 11.9262 33.1512 9.3132 30.9432 9.5752 30.3872 13.0262 31.0122" fill="#434343" fill-rule="evenodd"/>
    </g>
  </g>
</svg>