<?xml version="1.0" encoding="UTF-8"?>
<svg id="Layer_2" data-name="Layer 2" xmlns="http://www.w3.org/2000/svg" viewBox="0 0 52 52">
  <g id="Wind_Meter" data-name="Wind Meter">
    <circle id="outline" cx="26" cy="26" r="26" fill="#797979"/>
    <circle id="dial" cx="26" cy="26" r="25" fill="#fff"/>
    <g id="minor_ticks" data-name="minor ticks">
      <path id="NWN_tick" data-name="NWN tick" d="m17.66223,4.565l-.38489-.92926-.92383.38281.3847.92865c.30457-.13416.61273-.26105.92401-.3822Z" fill="#969696"/>
      <path id="WNW_tick" data-name="WNW tick" d="m4.9472,16.73822l-.92865-.3847-.38281.92383.92926.38489c.12115-.31128.24805-.61945.3822-.92401Z" fill="#969696"/>
      <path id="WSW_tick" data-name="WSW tick" d="m4.565,34.33771l-.92926.38495.38281.92383.92865-.3847c-.13416-.30457-.26105-.61279-.3822-.92407Z" fill="#969696"/>
      <path id="SSW_tick" data-name="SSW tick" d="m16.73822,47.0528l-.3847.92865.92383.38281.38489-.92926c-.31128-.12115-.61945-.24805-.92401-.3822Z" fill="#969696"/>
      <path id="SSE_tick" data-name="SSE tick" d="m34.33777,47.435l.38489.92926.92383-.38281-.3847-.92865c-.30457.13416-.61273.26105-.92401.3822Z" fill="#969696"/>
      <path id="ESE_tick" data-name="ESE tick" d="m47.0528,35.26178l.92865.3847.38281-.92383-.92926-.38495c-.12115.31128-.24805.61951-.3822.92407Z" fill="#969696"/>
      <path id="ENE_tick" data-name="ENE tick" d="m47.435,17.66223l.92926-.38489-.38281-.92383-.92865.3847c.13416.30457.26105.61273.3822.92401Z" fill="#969696"/>
      <path id="NNE_tick" data-name="NNE tick" d="m35.26178,4.9472l.3847-.92865-.92383-.38281-.38489.92926c.31128.12115.61945.24805.92401.3822Z" fill="#969696"/>
    </g>
    <g id="major_ticks" data-name="major ticks">
      <path id="NW_tick" data-name="NW tick" d="m10.633,9.57245l-1.25018-1.25018-1.06055,1.06055,1.25018,1.25018c.3418-.36523.69531-.71881,1.06055-1.06055Z" fill="#797979"/>
      <path id="SW_tick" data-name="SW tick" d="m9.57245,41.367l-1.25018,1.25018,1.06055,1.06055,1.25018-1.25018c-.36523-.34174-.71881-.69531-1.06055-1.06055Z" fill="#797979"/>
      <path id="SE_tick" data-name="SE tick" d="m41.367,42.42755l1.25018,1.25018,1.06055-1.06055-1.25018-1.25018c-.34174.36523-.69531.71881-1.06055,1.06055Z" fill="#797979"/>
      <path id="NE_tick" data-name="NE tick" d="m42.42755,10.633l1.25018-1.25018-1.06055-1.06055-1.25018,1.25018c.36523.34174.71875.69531,1.06055,1.06055Z" fill="#797979"/>
    </g>
    <path id="W" d="m2.45286,22.74902h.96094c.09863,0,.18164.02344.24805.07031.06738.04688.11133.10938.13379.18848l1.0459,3.67676c.02539.09082.04883.18945.07031.29492.02148.10645.04199.21973.06152.33789.02246-.11816.04785-.23145.07422-.33789.02734-.10547.05566-.2041.08691-.29492l1.20703-3.67676c.02246-.06445.06738-.12402.13379-.17773.06738-.05371.14844-.08105.24512-.08105h.33496c.09961,0,.18164.02344.24707.07031s.11035.10938.13574.18848l1.19824,3.67676c.0625.18164.11621.38281.16211.60352.01953-.11035.04004-.2168.06152-.31836.02148-.10254.04297-.19727.06543-.28516l1.0459-3.67676c.01953-.07031.06348-.13086.13184-.18262.06738-.05078.15039-.07617.24609-.07617h.89746l-1.90918,6.14551h-1.03223l-1.34277-4.19922c-.01758-.05371-.03516-.11133-.05371-.17383s-.03613-.12891-.05273-.2002c-.01758.07129-.03516.1377-.05371.2002-.01758.0625-.03516.12012-.05273.17383l-1.35547,4.19922h-1.0332l-1.9082-6.14551Z" fill="#434343"/>
    <path id="S" d="m27.63477,44.80011c-.03125.06152-.06836.10547-.10938.13086-.04102.02637-.08984.03906-.14648.03906s-.11914-.02246-.19142-.06641c-.0703-.04395-.15428-.09277-.25-.14648-.09569-.05371-.20897-.10254-.33787-.14648s-.28125-.06641-.45703-.06641c-.1582,0-.29688.01953-.41406.05762s-.2168.0918-.29688.15918c-.08203.06836-.14258.14941-.18164.24512-.03906.09473-.05859.19922-.05859.3125,0,.14355.03906.26465.12108.36035.08009.09668.18752.17871.32033.24707.13281.06738.28516.12891.45508.18262s.34375.11133.51953.17188c.17773.06152.35156.13184.52148.21289s.32227.18262.45508.30566.24023.27441.32031.45312c.08008.17773.12109.39453.12109.65039,0,.27734-.04688.53711-.14258.7793-.09375.24219-.23438.45312-.41602.63379-.18359.17969-.40625.32129-.66992.4248s-.56445.15527-.9043.15527c-.19531,0-.38867-.01953-.57812-.05762s-.37305-.09277-.54688-.16406c-.17383-.07031-.33789-.15527-.48828-.25488-.15234-.09863-.28711-.20898-.40625-.33105l.33203-.54883c.03125-.03906.06836-.07227.11133-.09961.04492-.02637.09375-.04004.14844-.04004.07031,0,.14648.0293.22852.08691s.17969.12207.29102.19336.24414.13574.39453.19336c.15234.05762.33398.08691.54688.08691.32617,0,.57812-.07715.75586-.23145.17969-.1543.26953-.37598.26953-.66504,0-.16113-.04102-.29297-.12305-.39551-.08008-.10156-.1875-.1875-.32031-.25684s-.28516-.12793-.45508-.17676c-.16992-.04785-.3418-.10059-.51758-.15723s-.34961-.12402-.51953-.2041c-.16992-.0791-.32031-.18262-.45314-.30957-.13475-.12793-.24022-.28711-.32225-.47852-.08008-.19141-.12109-.42676-.12109-.70801,0-.22363.04492-.44141.13477-.6543.08984-.21191.21875-.40039.39062-.56543.17188-.16406.38086-.2959.63086-.39453.25-.09961.53516-.14941.85547-.14941.36133,0,.69531.05664,1.00195.16992.30664.11426.56641.27246.78125.47656l-.2793.54004Z" fill="#434343"/>
    <path id="E" d="m49.49532,22.74902v.90918h-2.72363v1.7041h2.14648v.87988h-2.14648v1.73828h2.72363v.91406h-3.87598v-6.14551h3.87598Z" fill="#434343"/>
    <path id="N" d="m24.13477,2.60944c.0332.00391.06445.0127.08984.02539.02734.0127.05469.03125.08008.05469.02539.02441.05273.05664.08398.0957l3.22656,4.11035c-.01172-.09961-.01953-.19629-.02344-.29199-.00391-.09473-.00781-.18262-.00781-.26562v-3.73535h1.00781v6.14551h-.58984c-.0918,0-.16602-.01367-.22656-.04297-.05859-.02734-.11719-.0791-.17383-.15234l-3.21289-4.09277c.00781.09082.01562.18066.01953.26953.00391.08984.00586.1709.00586.24414v3.77441h-1.00781V2.6026h.59961c.05078,0,.09375.00195.12891.00684Z" fill="#434343"/>
  </g>
</svg>